<svg width="1469" height="1313" viewBox="0 0 1469 1313" fill="none" xmlns="http://www.w3.org/2000/svg">
<g filter="url(#filter0_d_629_112)">
<path d="M1282.28 488.921C1238.67 419.764 1207.18 369.823 1240.76 296.763C1240.86 296.463 1240.96 296.063 1241.06 295.762C1241.45 294.862 1241.75 293.961 1242.05 292.96C1242.35 292.059 1242.55 291.259 1242.74 290.358C1242.94 289.457 1243.04 288.556 1243.14 287.656C1243.24 286.755 1243.34 285.854 1243.34 284.954C1243.34 284.053 1243.24 283.152 1243.14 282.251C1243.04 281.351 1242.94 280.45 1242.74 279.449C1242.55 278.548 1242.35 277.748 1242.05 276.847C1241.75 275.846 1241.45 274.945 1241.06 274.045C1240.96 273.744 1240.86 273.344 1240.76 273.044C1240.56 272.543 1240.26 272.143 1239.96 271.643C1239.47 270.742 1239.07 269.941 1238.47 269.041C1237.98 268.24 1237.38 267.539 1236.88 266.839C1236.29 266.138 1235.69 265.438 1235.1 264.737C1234.4 264.036 1233.71 263.436 1233.01 262.835C1232.31 262.235 1231.62 261.735 1230.92 261.234C1230.13 260.634 1229.24 260.133 1228.34 259.733C1227.84 259.533 1227.45 259.132 1227.05 258.932C1226.75 258.832 1226.35 258.732 1226.06 258.632C1225.16 258.232 1224.17 257.931 1223.28 257.631C1222.38 257.331 1221.59 257.131 1220.79 256.931C1219.9 256.73 1219 256.63 1218.11 256.53C1217.22 256.43 1216.32 256.33 1215.43 256.33C1214.53 256.33 1213.64 256.43 1212.75 256.53C1211.85 256.63 1210.86 256.73 1209.96 256.931C1209.17 257.131 1208.38 257.331 1207.48 257.531C1206.49 257.831 1205.49 258.131 1204.5 258.532C1204.2 258.632 1203.91 258.732 1203.61 258.832C937.689 380.932 1002.95 551.372 1060.47 701.696C1090.76 780.861 1118.97 854.922 1107.45 924.179C1021.23 957.206 937.788 940.593 848.387 872.737C856.135 855.923 860.605 837.207 860.605 817.491C860.605 784.464 848.387 754.339 828.421 731.22C892.889 620.93 933.616 479.914 883.055 320.783C844.612 199.884 770.31 122.42 755.609 108.008C755.311 107.708 755.112 107.307 754.814 106.907C751.635 103.404 747.761 101.103 743.589 99.6014C743.49 99.6014 743.39 99.5012 743.291 99.5012C741.801 99.0008 740.41 98.6003 738.92 98.4001C738.324 98.3 737.828 98.2001 737.232 98.2001C736.238 98.1 735.146 98 734.152 98C733.06 98 732.066 98.1 731.073 98.2001C730.477 98.3001 729.881 98.3 729.384 98.4001C727.894 98.7004 726.404 99.0008 725.013 99.5012C724.914 99.5012 724.815 99.6014 724.715 99.6014C720.543 101.103 716.669 103.404 713.491 106.907C713.193 107.207 712.994 107.608 712.696 108.008C697.995 122.52 623.692 199.884 585.25 320.783C535.483 477.412 574.124 616.426 636.804 725.916C613.957 749.635 599.852 781.862 599.852 817.491C599.852 838.909 605.018 859.125 614.057 877.04C526.941 941.193 445.188 956.405 360.853 924.179C349.33 854.922 377.541 780.861 407.838 701.696C465.353 551.272 530.517 380.832 264.697 258.832C264.399 258.732 264.101 258.632 263.803 258.532C262.81 258.131 261.817 257.831 260.824 257.531C260.029 257.331 259.234 257.031 258.34 256.931C257.446 256.73 256.453 256.63 255.559 256.53C254.665 256.43 253.771 256.33 252.877 256.33C251.983 256.33 251.089 256.43 250.195 256.53C249.301 256.63 248.407 256.73 247.513 256.931C246.619 257.131 245.824 257.331 245.029 257.631C244.036 257.931 243.142 258.232 242.248 258.632C241.95 258.732 241.553 258.832 241.255 258.932C240.758 259.132 240.361 259.433 239.963 259.733C239.069 260.233 238.175 260.734 237.38 261.234C236.685 261.735 235.99 262.235 235.294 262.835C234.599 263.436 233.904 264.036 233.209 264.737C232.513 265.438 231.917 266.038 231.42 266.839C230.824 267.539 230.328 268.24 229.831 269.041C229.334 269.841 228.838 270.742 228.341 271.643C228.142 272.143 227.745 272.543 227.546 273.044C227.447 273.344 227.348 273.744 227.248 274.045C226.851 274.945 226.553 275.946 226.255 276.847C225.957 277.748 225.758 278.548 225.56 279.449C225.361 280.35 225.262 281.251 225.162 282.251C225.063 283.152 224.964 284.053 224.964 284.954C224.964 285.854 225.063 286.755 225.162 287.656C225.262 288.556 225.361 289.457 225.56 290.358C225.758 291.259 225.957 292.059 226.255 292.96C226.553 293.861 226.851 294.862 227.248 295.762C227.348 296.063 227.447 296.463 227.546 296.763C261.121 369.923 229.632 419.865 186.025 488.921C165.264 521.848 143.708 555.976 127.318 596.41C72.5846 730.92 143.211 877.24 303.041 960.409C306.716 962.31 310.391 964.012 314.067 965.813C339.695 1046.68 413.997 1124.84 580.581 1191C583.959 1192.3 587.435 1193 590.912 1193C602.137 1193 612.766 1186.19 617.136 1175.09C622.798 1160.47 615.746 1144.06 601.243 1138.26C484.922 1092.02 419.56 1042.98 386.68 990.934C406.05 995.037 425.52 997.239 444.989 997.239C513.332 997.239 581.873 971.818 650.115 921.177C672.267 938.691 700.18 949.3 730.576 949.3C762.76 949.3 792.064 937.59 814.812 918.174C884.346 970.817 954.377 997.239 1024.01 997.239C1043.48 997.239 1062.95 995.037 1082.32 990.934C1049.44 1042.98 984.078 1092.02 867.757 1138.26C853.254 1143.96 846.202 1160.47 851.864 1175.09C856.234 1186.19 866.863 1193 878.088 1193C881.565 1193 885.041 1192.4 888.419 1191C1055 1124.84 1129.21 1046.68 1154.93 965.813C1158.61 964.012 1162.28 962.31 1165.96 960.409C1325.79 877.24 1396.42 730.92 1341.68 596.41C1324.5 555.876 1303.04 521.848 1282.28 488.921ZM302.246 895.255C188.11 825.098 138.642 716.508 178.674 617.927C193.276 582.098 213.342 550.172 232.811 519.346C267.28 464.701 302.445 408.655 296.385 339.999C449.36 433.876 407.044 544.667 354.694 681.479C329.265 748.234 301.153 821.795 302.246 895.255ZM729.881 892.553C688.856 892.553 655.579 859.026 655.579 817.692C655.579 776.358 688.856 742.83 729.881 742.83C770.906 742.83 804.183 776.358 804.183 817.692C804.183 859.026 770.906 892.553 729.881 892.553ZM782.926 697.593C766.734 690.287 748.755 686.183 729.881 686.183C713.391 686.183 697.697 689.386 683.194 694.991C534.887 433.976 678.326 231.209 733.755 167.757C789.382 231.41 933.715 435.277 782.926 697.593ZM1165.36 895.255C1166.46 821.795 1138.34 748.334 1112.82 681.479C1060.47 544.667 1018.15 433.776 1171.12 339.999C1165.07 408.655 1200.23 464.701 1234.7 519.346C1254.17 550.172 1274.33 582.098 1288.84 617.927C1328.97 716.508 1279.5 825.098 1165.36 895.255Z" fill="url(#paint0_linear_629_112)"/>
</g>
<defs>
<filter id="filter0_d_629_112" x="0" y="0" width="1469" height="1313" filterUnits="userSpaceOnUse" color-interpolation-filters="sRGB">
<feFlood flood-opacity="0" result="BackgroundImageFix"/>
<feColorMatrix in="SourceAlpha" type="matrix" values="0 0 0 0 0 0 0 0 0 0 0 0 0 0 0 0 0 0 127 0" result="hardAlpha"/>
<feOffset dy="11"/>
<feGaussianBlur stdDeviation="54.5"/>
<feComposite in2="hardAlpha" operator="out"/>
<feColorMatrix type="matrix" values="0 0 0 0 0 0 0 0 0 0 0 0 0 0 0 0 0 0 0.15 0"/>
<feBlend mode="normal" in2="BackgroundImageFix" result="effect1_dropShadow_629_112"/>
<feBlend mode="normal" in="SourceGraphic" in2="effect1_dropShadow_629_112" result="shape"/>
</filter>
<linearGradient id="paint0_linear_629_112" x1="734.5" y1="683.5" x2="734.5" y2="-638" gradientUnits="userSpaceOnUse">
<stop offset="0.234375" stop-color="#63635D"/>
<stop offset="1"/>
</linearGradient>
</defs>
</svg>
