<svg width="19" height="18" viewBox="0 0 19 18" fill="none" xmlns="http://www.w3.org/2000/svg">
<path d="M17.8145 12.3772L17.8145 12.3772L17.8109 12.3711C17.6885 12.1618 17.4922 12.0384 17.3506 11.9588C17.2614 11.9086 17.1448 11.8508 17.027 11.7924C16.9609 11.7596 16.8945 11.7267 16.8323 11.6948C16.6277 11.5899 16.0273 11.2864 15.4314 10.9917C14.8517 10.705 14.2313 10.404 14.0153 10.3234L14.0119 10.3221C13.8421 10.2588 13.5729 10.1584 13.2895 10.1916C12.9479 10.2317 12.6978 10.4402 12.5115 10.7267C12.2631 11.1088 11.5112 12.0159 11.2696 12.299C11.2379 12.3361 11.2172 12.3532 11.2074 12.3601C11.1883 12.3581 11.1278 12.3469 11.0018 12.2823C10.9236 12.2422 10.8229 12.1972 10.7022 12.1433C10.123 11.8848 9.0834 11.4207 7.85864 10.3018C6.71498 9.25498 5.93147 7.95012 5.70358 7.5495C5.67613 7.50125 5.66837 7.47335 5.66622 7.46292C5.66964 7.45629 5.67755 7.44287 5.69459 7.42129C5.72074 7.38816 5.75406 7.35306 5.80667 7.29911C5.9433 7.15901 6.1129 6.94806 6.26133 6.76344C6.32608 6.6829 6.3868 6.60738 6.439 6.54493C6.65387 6.28787 6.75509 6.07517 6.85755 5.85985C6.87456 5.82412 6.8916 5.78831 6.9092 5.75221C7.14163 5.27554 7.00665 4.85716 6.87549 4.58818L6.8753 4.58778C6.87508 4.58733 6.87469 4.58649 6.87409 4.58522L6.87023 4.57677L6.85759 4.54817C6.84725 4.5244 6.83415 4.49362 6.81838 4.45602C6.78687 4.3809 6.74639 4.28255 6.69898 4.16625C6.60424 3.93384 6.48358 3.634 6.35513 3.31371C6.27619 3.11687 6.19428 2.91221 6.11377 2.71107C5.93299 2.25939 5.7593 1.82543 5.64232 1.53753C5.45426 1.0747 5.2189 0.758379 4.88887 0.61204C4.7265 0.54004 4.57653 0.525919 4.46344 0.525919C4.41039 0.525919 4.36175 0.529157 4.33014 0.531262L4.32893 0.531343C4.29133 0.533845 4.2785 0.534559 4.26912 0.534559C4.17188 0.534559 4.06444 0.52745 3.93046 0.518586L3.92719 0.51837C3.79823 0.509838 3.64767 0.5 3.49398 0.5C3.10578 0.5 2.52306 0.647827 2.04272 1.18516C2.02002 1.21055 1.99442 1.23855 1.96636 1.26925C1.53059 1.74592 0.5 2.87324 0.5 4.98012C0.5 6.10613 0.894114 7.18437 1.29521 7.99736C1.69955 8.81692 2.13155 9.40749 2.24449 9.56187L2.24784 9.56645C2.24776 9.56634 2.25163 9.57175 2.26216 9.58744C2.27178 9.60179 2.284 9.62027 2.29952 9.64384C2.30602 9.65371 2.31301 9.66435 2.32048 9.67571C2.348 9.71758 2.38196 9.76923 2.42127 9.82839C2.52177 9.97962 2.65907 10.1826 2.83119 10.4236C3.17517 10.9051 3.65857 11.5388 4.26779 12.2174C5.4809 13.5687 7.21795 15.1264 9.37334 15.996C11.4319 16.8266 12.5175 17.1281 13.2012 17.1963C13.5599 17.232 13.8096 17.2041 14.0241 17.1587C14.1166 17.1392 14.1804 17.123 14.2328 17.1098C14.3148 17.0891 14.3687 17.0755 14.46 17.067C14.9503 17.0212 15.6303 16.7196 16.2064 16.3379C16.7777 15.9593 17.3914 15.4074 17.6157 14.7637C17.7982 14.2395 17.891 13.749 17.924 13.3574C17.9404 13.162 17.9425 12.984 17.9311 12.8337C17.9216 12.7087 17.8985 12.5257 17.8145 12.3772Z" stroke="#D6D2C4"/>
</svg>
