<svg width="29" height="30" viewBox="0 0 29 30" fill="none" xmlns="http://www.w3.org/2000/svg">
<circle cx="14.7701" cy="14.9408" r="13.5184" fill="#212322"/>
<path fill-rule="evenodd" clip-rule="evenodd" d="M14.77 0.710938C6.9122 0.710938 0.540039 7.0831 0.540039 14.9409C0.540039 22.7986 6.9122 29.1708 14.77 29.1708C22.6277 29.1708 28.9999 22.7986 28.9999 14.9409C28.9999 7.0831 22.6277 0.710938 14.77 0.710938Z" fill="#D6D2C4"/>
<path d="M7.65501 12.3716C7.65501 11.9768 8.09114 11.7377 8.42397 11.9501L13.1737 14.981C14.1473 15.6023 15.3929 15.6023 16.3665 14.981L21.116 11.9503C21.4488 11.7379 21.8849 11.977 21.8849 12.3718V19.1489C21.8849 19.9684 21.2206 20.6327 20.4011 20.6327L9.13884 20.6327C8.31934 20.6327 7.65501 19.9684 7.65501 19.1489L7.65501 12.3716Z" fill="#212322"/>
<path d="M9.36808 10.0528C8.86818 10.0527 8.6777 10.7053 9.09911 10.9742L13.5728 13.829C14.303 14.295 15.2372 14.295 15.9674 13.829L20.4409 10.9744C20.8623 10.7055 20.6718 10.0529 20.1719 10.0529L9.36808 10.0528Z" fill="#212322"/>
</svg>
