<svg width="30" height="30" viewBox="0 0 30 30" fill="none" xmlns="http://www.w3.org/2000/svg">
<circle cx="15.2257" cy="14.9413" r="13.5184" fill="#212322"/>
<path fill-rule="evenodd" clip-rule="evenodd" d="M0.995667 14.9414C0.995667 7.08359 7.36783 0.711426 15.2256 0.711426C23.0834 0.711426 29.4555 7.08359 29.4555 14.9414C29.4555 22.7991 23.0834 29.1713 15.2256 29.1713C7.36783 29.1713 0.995667 22.7991 0.995667 14.9414ZM15.6069 14.8452C17.8028 14.8452 19.5929 13.0551 19.5929 10.8592C19.5929 8.6633 17.8028 6.87317 15.6069 6.87317C15.182 6.87317 14.7728 6.93875 14.389 7.06021C13.0181 7.494 11.9696 8.64049 11.6782 10.0575C11.6249 10.3166 11.597 10.5847 11.597 10.8592C11.597 11.7001 11.8595 12.4815 12.3081 13.1256C12.7381 13.7431 13.3391 14.2344 14.0438 14.5312C14.5238 14.7334 15.0519 14.8452 15.6069 14.8452ZM15.6069 9.21227C16.5139 9.21227 17.2538 9.9522 17.2538 10.8592C17.2538 11.7662 16.5139 12.5061 15.6069 12.5061C14.6999 12.5061 13.9599 11.7662 13.9599 10.8592C13.942 10.1789 14.3538 9.59268 14.9535 9.34206C15.1534 9.25852 15.3741 9.21227 15.6069 9.21227ZM17.2061 18.1153C17.5104 18.0437 17.8114 17.9553 18.1065 17.8488C18.5983 17.6715 19.0739 17.444 19.5214 17.1605C19.8637 16.9521 20.0575 16.5859 20.0681 16.2067C20.0724 16.0538 20.0468 15.8988 19.9893 15.7511C19.9607 15.6777 19.9241 15.6061 19.8794 15.5375C19.587 15.0571 18.984 14.8691 18.47 15.0695C18.3966 15.0981 18.3249 15.1347 18.2563 15.1794C16.6333 16.2058 14.509 16.2058 12.8859 15.1794C12.3369 14.8453 11.6209 14.9885 11.2629 15.5375C10.9526 16.0864 11.1196 16.8025 11.6686 17.1367C12.3847 17.5902 13.1723 17.9004 13.9839 18.0914L11.7641 20.3112H11.7641C11.6587 20.4166 11.5778 20.5375 11.5214 20.6667C11.3958 20.9543 11.3916 21.2829 11.509 21.5733C11.5657 21.7135 11.6507 21.8448 11.7641 21.9581C11.7934 21.9874 11.8234 22.0145 11.8541 22.0396C12.0735 22.2187 12.3273 22.2923 12.5995 22.2923C12.9098 22.2923 13.1962 22.1729 13.4349 21.9581L15.6308 19.7622L17.8267 21.9581C18.2802 22.4116 19.0201 22.4116 19.4736 21.9581C19.8704 21.5613 19.92 20.9452 19.6224 20.4936C19.5799 20.4291 19.5303 20.3679 19.4736 20.3112L17.2061 18.1153Z" fill="#D6D2C4"/>
</svg>
