<svg width="30" height="30" viewBox="0 0 30 30" fill="none" xmlns="http://www.w3.org/2000/svg">
<circle cx="15.0629" cy="14.9413" r="13.5184" fill="#212322"/>
<path fill-rule="evenodd" clip-rule="evenodd" d="M15.0629 0.711426C7.20514 0.711426 0.832977 7.08359 0.832977 14.9414C0.832977 22.7991 7.20514 29.1713 15.0629 29.1713C22.9207 29.1713 29.2928 22.7991 29.2928 14.9414C29.2928 7.08359 22.9207 0.711426 15.0629 0.711426ZM21.8477 9.96373C21.8079 10.5386 21.4778 12.5536 21.1476 14.7336L20.1202 21.1911C20.1202 21.1911 20.0377 22.136 19.3376 22.3011C18.6375 22.4661 17.4877 21.7262 17.2799 21.5611C17.1149 21.4387 14.1949 19.586 13.1248 18.681C12.8373 18.4334 12.5072 17.941 13.1646 17.3661C14.6445 16.0086 16.4148 14.3238 17.482 13.2537C17.9744 12.7613 18.4696 11.6087 16.4119 13.0061L10.6118 16.9136C10.6118 16.9136 9.95437 17.3263 8.71921 16.9535C7.48405 16.5835 6.04683 16.0911 6.04683 16.0911C6.04683 16.0911 5.05926 15.4736 6.74693 14.8161L16.3294 10.8688C17.2742 10.4561 20.4845 9.14124 20.4845 9.14124C20.4845 9.14124 21.973 8.56635 21.8477 9.96373Z" fill="#D6D2C4"/>
</svg>
