<svg width="29" height="30" viewBox="0 0 29 30" fill="none" xmlns="http://www.w3.org/2000/svg">
<path fill-rule="evenodd" clip-rule="evenodd" d="M14.2299 0.711426C6.37216 0.711426 0 7.08359 0 14.9414C0 22.7991 6.37216 29.1713 14.2299 29.1713C22.0877 29.1713 28.4599 22.7991 28.4599 14.9414C28.4599 7.08359 22.0877 0.711426 14.2299 0.711426Z" fill="#D6D2C4"/>
<path d="M14.7321 20.6335C8.1686 20.6335 4.42497 16.3602 4.26898 9.24951H7.55671C7.6647 14.4686 10.0884 16.6793 12.0083 17.1351V9.24951H15.1041V13.7507C17 13.557 18.9916 11.5058 19.6635 9.24951H22.7593C22.2434 12.03 20.0836 14.0811 18.5477 14.9244C20.0836 15.6081 22.5435 17.3972 23.4794 20.6335H20.0716C19.3396 18.4683 17.5159 16.7932 15.1041 16.5653V20.6335H14.7321Z" fill="#212322"/>
</svg>
