<svg width="29" height="29" viewBox="0 0 29 29" fill="none" xmlns="http://www.w3.org/2000/svg">
<ellipse cx="14.7114" cy="14.2299" rx="13.1627" ry="13.5184" fill="#212322"/>
<path fill-rule="evenodd" clip-rule="evenodd" d="M14.7171 0C7.06666 0 0.837311 6.38202 0.837311 14.2271C0.837311 17.3432 1.8203 20.2232 3.47734 22.5732L1.74167 27.8551L7.07227 26.1041C9.26293 27.5901 11.8861 28.4599 14.7059 28.4599C22.3564 28.4599 28.5857 22.0779 28.5857 14.2328C28.5969 6.38202 22.3676 0 14.7171 0ZM22.8169 20.0964C22.4799 21.0641 20.8285 21.9972 20.087 22.0663C19.3456 22.1355 19.3456 22.6884 15.2339 21.0295C11.1222 19.3707 8.5271 15.045 8.32489 14.7685C8.12267 14.492 6.67348 12.5221 6.67348 10.4773C6.67348 8.43832 7.71824 7.43033 8.08896 7.01561C8.45969 6.6009 8.89783 6.49722 9.16745 6.49722C9.43707 6.49722 9.70668 6.53178 9.9426 6.53178C10.1785 6.53178 10.5156 6.39354 10.8526 7.22297C11.1896 8.0524 11.9984 10.0972 12.0995 10.3045C12.2007 10.5119 12.2681 10.7538 12.1333 11.0303C11.9984 11.3068 11.9311 11.4796 11.7288 11.7215C11.5266 11.9634 11.3019 12.2629 11.1222 12.4472C10.92 12.6546 10.7065 12.8792 10.9425 13.2939C11.1784 13.7087 11.9928 15.068 13.1949 16.1682C14.7396 17.5793 16.0428 18.0171 16.4472 18.2245C16.8516 18.4318 17.0875 18.3973 17.3234 18.1208C17.5593 17.8443 18.3345 16.9112 18.6041 16.4965C18.8738 16.0818 19.1434 16.1509 19.5141 16.2891C19.8848 16.4274 21.8733 17.4296 22.2777 17.6369C22.6821 17.8443 22.9517 17.948 23.0529 18.1208C23.154 18.2993 23.154 19.1288 22.8169 20.0964Z" fill="#D6D2C4"/>
</svg>
