<svg width="135" height="118" viewBox="0 0 135 118" fill="none" xmlns="http://www.w3.org/2000/svg">
<path d="M126.613 42.1267C121.907 34.6742 118.509 29.2924 122.132 21.4192C122.143 21.3869 122.154 21.3437 122.164 21.3114C122.207 21.2143 122.239 21.1172 122.272 21.0094C122.304 20.9123 122.325 20.8261 122.347 20.729C122.368 20.6319 122.379 20.5348 122.389 20.4378C122.4 20.3407 122.411 20.2437 122.411 20.1466C122.411 20.0495 122.4 19.9525 122.389 19.8554C122.379 19.7583 122.368 19.6613 122.347 19.5534C122.325 19.4564 122.304 19.3701 122.272 19.273C122.239 19.1652 122.207 19.0681 122.164 18.971C122.154 18.9387 122.143 18.8955 122.132 18.8632C122.111 18.8092 122.079 18.7661 122.046 18.7122C121.993 18.6151 121.95 18.5288 121.886 18.4318C121.832 18.3455 121.768 18.27 121.714 18.1945C121.65 18.119 121.585 18.0435 121.521 17.968C121.446 17.8925 121.371 17.8278 121.296 17.7631C121.221 17.6984 121.146 17.6445 121.071 17.5905C120.985 17.5258 120.889 17.4719 120.792 17.4288C120.739 17.4072 120.696 17.364 120.653 17.3425C120.621 17.3317 120.578 17.3209 120.546 17.3101C120.449 17.267 120.342 17.2346 120.246 17.2022C120.149 17.1699 120.063 17.1483 119.978 17.1268C119.881 17.1052 119.785 17.0944 119.688 17.0836C119.592 17.0728 119.495 17.062 119.399 17.062C119.302 17.062 119.206 17.0728 119.109 17.0836C119.013 17.0944 118.906 17.1052 118.809 17.1268C118.723 17.1483 118.638 17.1699 118.541 17.1915C118.434 17.2238 118.327 17.2562 118.22 17.2993C118.187 17.3101 118.155 17.3209 118.123 17.3317C89.4268 30.4895 96.4696 48.8566 102.676 65.0558C105.946 73.5868 108.99 81.5678 107.747 89.0312C98.442 92.5902 89.4376 90.7999 79.79 83.4876C80.6261 81.6757 81.1084 79.6589 81.1084 77.5342C81.1084 73.9751 79.7899 70.7288 77.6353 68.2374C84.5923 56.3522 88.9873 41.156 83.5311 24.0077C79.3826 10.9792 71.3644 2.63157 69.7779 1.07851C69.7457 1.04616 69.7243 1.003 69.6921 0.959859C69.3491 0.582379 68.931 0.334343 68.4808 0.172566C68.4701 0.172566 68.4594 0.16177 68.4487 0.16177C68.2879 0.107845 68.1378 0.064687 67.977 0.0431168C67.9127 0.0323317 67.8591 0.0215584 67.7948 0.0215584C67.6876 0.0107733 67.5697 0 67.4625 0C67.3446 0 67.2374 0.0107733 67.1302 0.0215584C67.0659 0.0323435 67.0015 0.0323317 66.9479 0.0431168C66.7871 0.0754721 66.6263 0.107845 66.4763 0.16177C66.4655 0.16177 66.4548 0.172566 66.4441 0.172566C65.9939 0.334343 65.5758 0.582379 65.2328 0.959859C65.2006 0.992214 65.1792 1.03537 65.147 1.07851C63.5606 2.64235 55.5424 10.9792 51.3939 24.0077C46.0234 40.8864 50.1933 55.8669 56.9573 67.6658C54.4918 70.2219 52.9696 73.6947 52.9696 77.5342C52.9696 79.8422 53.5271 82.0208 54.5025 83.9514C45.1015 90.8646 36.2793 92.504 27.1784 89.0312C25.9349 81.5678 28.9793 73.5868 32.2488 65.0558C38.4554 48.8458 45.4874 30.4787 16.8019 17.3317C16.7697 17.3209 16.7376 17.3101 16.7054 17.2993C16.5982 17.2562 16.491 17.2238 16.3838 17.1915C16.2981 17.1699 16.2123 17.1376 16.1158 17.1268C16.0194 17.1052 15.9122 17.0944 15.8157 17.0836C15.7192 17.0728 15.6227 17.062 15.5262 17.062C15.4298 17.062 15.3333 17.0728 15.2368 17.0836C15.1404 17.0944 15.0439 17.1052 14.9474 17.1268C14.8509 17.1483 14.7652 17.1699 14.6794 17.2022C14.5722 17.2346 14.4757 17.267 14.3792 17.3101C14.3471 17.3209 14.3042 17.3317 14.2721 17.3425C14.2185 17.364 14.1756 17.3964 14.1327 17.4288C14.0362 17.4827 13.9398 17.5366 13.854 17.5905C13.779 17.6445 13.7039 17.6984 13.6289 17.7631C13.5539 17.8278 13.4788 17.8925 13.4038 17.968C13.3288 18.0435 13.2644 18.1082 13.2108 18.1945C13.1465 18.27 13.0929 18.3455 13.0393 18.4318C12.9857 18.518 12.9321 18.6151 12.8785 18.7122C12.8571 18.7661 12.8142 18.8092 12.7928 18.8632C12.7821 18.8955 12.7713 18.9387 12.7606 18.971C12.7177 19.0681 12.6856 19.1759 12.6534 19.273C12.6213 19.3701 12.5998 19.4564 12.5784 19.5534C12.5569 19.6505 12.5462 19.7476 12.5355 19.8554C12.5248 19.9525 12.5141 20.0495 12.5141 20.1466C12.5141 20.2437 12.5248 20.3407 12.5355 20.4378C12.5462 20.5348 12.5569 20.6319 12.5784 20.729C12.5998 20.8261 12.6213 20.9123 12.6534 21.0094C12.6856 21.1065 12.7177 21.2143 12.7606 21.3114C12.7713 21.3437 12.7821 21.3869 12.7928 21.4192C16.416 29.3032 13.0179 34.6849 8.31201 42.1267C6.07163 45.675 3.74548 49.3527 1.97675 53.7099C-3.92972 68.2051 3.69188 83.9729 20.9396 92.9354C21.3363 93.1403 21.7329 93.3236 22.1295 93.5178C24.8951 102.232 32.9134 110.655 50.8901 117.784C51.2545 117.924 51.6297 118 52.0049 118C53.2162 118 54.3632 117.267 54.8349 116.069C55.4459 114.495 54.6848 112.726 53.1197 112.101C40.5671 107.118 33.5137 101.833 29.9655 96.2248C32.0558 96.667 34.1568 96.9043 36.2579 96.9043C43.6329 96.9043 51.0294 94.1649 58.3937 88.7076C60.7842 90.595 67.0766 91.7382 67.0766 91.7382C67.0766 91.7382 73.712 90.4764 76.1667 88.384C83.6704 94.057 91.2277 96.9043 98.7421 96.9043C100.843 96.9043 102.944 96.667 105.034 96.2248C101.486 101.833 94.4328 107.118 81.8802 112.101C80.3152 112.715 79.5541 114.495 80.1652 116.069C80.6368 117.267 81.7838 118 82.9951 118C83.3703 118 83.7455 117.935 84.1099 117.784C102.087 110.655 110.094 102.232 112.87 93.5178C113.267 93.3236 113.664 93.1403 114.06 92.9354C131.308 83.9729 138.93 68.2051 133.023 53.7099C131.169 49.3419 128.853 45.675 126.613 42.1267ZM20.8539 85.9143C8.5371 78.3539 3.19876 66.652 7.51874 56.0287C9.09452 52.1676 11.2599 48.7272 13.3609 45.4054C17.0806 39.5167 20.8753 33.477 20.2214 26.0784C36.7295 36.1949 32.163 48.134 26.5138 62.8772C23.7696 70.0709 20.736 77.998 20.8539 85.9143ZM67.0015 85.623C62.5744 85.623 58.9833 82.0101 58.9833 77.5558C58.9833 73.1015 62.5744 69.4885 67.0015 69.4885C71.4287 69.4885 75.0198 73.1015 75.0198 77.5558C75.0198 82.0101 71.4287 85.623 67.0015 85.623ZM72.7258 64.6137C70.9785 63.8263 69.0383 63.3841 67.0015 63.3841C65.2221 63.3841 63.5284 63.7293 61.9633 64.3332C45.9591 36.2056 61.4381 14.355 67.4196 7.51723C73.4225 14.3766 88.9981 36.3459 72.7258 64.6137ZM113.996 85.9143C114.114 77.998 111.08 70.0817 108.325 62.8772C102.676 48.134 98.1097 36.1841 114.618 26.0784C113.964 33.477 117.759 39.5167 121.478 45.4054C123.579 48.7272 125.755 52.1676 127.32 56.0287C131.651 66.652 126.313 78.3539 113.996 85.9143Z" fill="#BE1622"/>
</svg>
