<svg width="152" height="119" viewBox="0 0 152 119" fill="none" xmlns="http://www.w3.org/2000/svg">
<path d="M13.5587 74.505C11.3028 64.7873 18.6811 55.5 28.6572 55.5H55C63.5604 55.5 70.5 62.4396 70.5 71V80C70.5 88.5604 63.5604 95.5 55 95.5H38.639C31.6453 95.5 25.0156 98.3849 20.2628 103.384L13.5587 74.505Z" stroke="#BE1622" stroke-width="5"/>
<path d="M93.4237 33.5149C95.6869 23.7946 88.3078 14.5 78.3275 14.5H69.0714C61.5761 14.5 55.5 20.5761 55.5 28.0714V30.6381C55.5 36.7159 60.427 41.6429 66.5047 41.6429H77.6318C82.3945 41.6429 86.9308 43.4403 90.3778 46.5965L93.4237 33.5149Z" stroke="#BE1622" stroke-width="5"/>
<path d="M84.5763 97.4851C82.3131 107.205 89.6922 116.5 99.6725 116.5L108.929 116.5C116.424 116.5 122.5 110.424 122.5 102.929L122.5 100.362C122.5 94.2841 117.573 89.3572 111.495 89.3571L100.368 89.3571C95.6055 89.3571 91.0692 87.5597 87.6222 84.4035L84.5763 97.4851Z" stroke="#BE1622" stroke-width="5"/>
<path d="M19.5903 3.41272L34.4094 16.0873" stroke="#BE1622" stroke-width="5" stroke-linecap="round"/>
<path d="M147.418 65.491L128.87 71.5087" stroke="#BE1622" stroke-width="5" stroke-linecap="round"/>
<path d="M3 12L10.8191 15.6746" stroke="#BE1622" stroke-width="5" stroke-linecap="round"/>
<path d="M148.76 46.8582L141.543 51.6069" stroke="#BE1622" stroke-width="5" stroke-linecap="round"/>
<path d="M9 27L22.5638 31.9696" stroke="#BE1622" stroke-width="5" stroke-linecap="round"/>
<path d="M132.835 44.1407L121.513 53.1122" stroke="#BE1622" stroke-width="5" stroke-linecap="round"/>
</svg>
