<svg width="131" height="114" viewBox="0 0 131 114" fill="none" xmlns="http://www.w3.org/2000/svg">
<path d="M122.861 40.6987C118.295 33.4988 114.998 28.2994 118.513 20.6932C118.524 20.6619 118.534 20.6202 118.545 20.589C118.586 20.4952 118.617 20.4014 118.649 20.2972C118.68 20.2034 118.701 20.1201 118.721 20.0263C118.742 19.9325 118.753 19.8388 118.763 19.745C118.773 19.6512 118.784 19.5574 118.784 19.4637C118.784 19.3699 118.773 19.2761 118.763 19.1823C118.753 19.0886 118.742 18.9948 118.721 18.8906C118.701 18.7968 118.68 18.7135 118.649 18.6197C118.617 18.5155 118.586 18.4217 118.545 18.3279C118.534 18.2967 118.524 18.255 118.513 18.2237C118.493 18.1716 118.461 18.13 118.43 18.0779C118.378 17.9841 118.337 17.9007 118.274 17.807C118.222 17.7236 118.16 17.6507 118.108 17.5777C118.045 17.5048 117.983 17.4319 117.921 17.3589C117.848 17.286 117.775 17.2235 117.702 17.161C117.629 17.0984 117.556 17.0463 117.484 16.9942C117.4 16.9317 117.307 16.8796 117.213 16.838C117.161 16.8171 117.12 16.7754 117.078 16.7546C117.047 16.7442 117.005 16.7337 116.974 16.7233C116.88 16.6816 116.776 16.6504 116.683 16.6191C116.589 16.5879 116.506 16.567 116.423 16.5462C116.329 16.5254 116.235 16.5149 116.142 16.5045C116.048 16.4941 115.955 16.4837 115.861 16.4837C115.767 16.4837 115.674 16.4941 115.58 16.5045C115.486 16.5149 115.382 16.5254 115.289 16.5462C115.206 16.567 115.122 16.5879 115.029 16.6087C114.925 16.64 114.821 16.6712 114.717 16.7129C114.686 16.7233 114.654 16.7337 114.623 16.7441C86.7772 29.456 93.6112 47.2004 99.6339 62.8505C102.807 71.0924 105.761 78.8028 104.554 86.0131C95.5252 89.4516 86.7876 87.722 77.4258 80.6575C78.2372 78.9071 78.7052 76.9586 78.7052 74.9059C78.7052 71.4675 77.4258 68.3312 75.335 65.9243C82.0859 54.442 86.3507 39.7609 81.0561 23.1938C77.0305 10.6071 69.2499 2.54236 67.7104 1.04195C67.6792 1.01069 67.6584 0.968999 67.6272 0.927321C67.2943 0.562638 66.8886 0.323009 66.4518 0.166716C66.4414 0.166716 66.4309 0.156286 66.4205 0.156286C66.2645 0.104189 66.1189 0.0624942 65.9629 0.0416552C65.9005 0.0312357 65.8485 0.0208276 65.786 0.0208276C65.682 0.0104081 65.5676 0 65.4636 0C65.3492 0 65.2451 0.0104081 65.1411 0.0208276C65.0787 0.0312471 65.0163 0.0312357 64.9643 0.0416552C64.8083 0.0729138 64.6522 0.104189 64.5066 0.156286C64.4962 0.156286 64.4858 0.166716 64.4754 0.166716C64.0385 0.323009 63.6328 0.562638 63.3 0.927321C63.2688 0.95858 63.248 1.00027 63.2168 1.04195C61.6773 2.55278 53.8966 10.6071 49.8711 23.1938C44.6597 39.5004 48.7061 53.9731 55.2697 65.3721C52.8772 67.8415 51.4002 71.1966 51.4002 74.9059C51.4002 77.1357 51.9411 79.2405 52.8877 81.1056C43.7652 87.7845 35.2043 89.3682 26.3731 86.0131C25.1665 78.8028 28.1206 71.0924 31.2932 62.8505C37.316 47.19 44.1396 29.4455 16.304 16.7441C16.2728 16.7337 16.2416 16.7233 16.2104 16.7129C16.1064 16.6712 16.0024 16.64 15.8984 16.6087C15.8152 16.5879 15.732 16.5566 15.6383 16.5462C15.5447 16.5254 15.4407 16.5149 15.3471 16.5045C15.2535 16.4941 15.1598 16.4837 15.0662 16.4837C14.9726 16.4837 14.879 16.4941 14.7854 16.5045C14.6918 16.5149 14.5981 16.5254 14.5045 16.5462C14.4109 16.567 14.3277 16.5879 14.2445 16.6191C14.1405 16.6504 14.0468 16.6816 13.9532 16.7233C13.922 16.7337 13.8804 16.7442 13.8492 16.7546C13.7972 16.7754 13.7556 16.8067 13.714 16.838C13.6204 16.89 13.5267 16.9421 13.4435 16.9942C13.3707 17.0463 13.2979 17.0984 13.2251 17.161C13.1523 17.2235 13.0795 17.286 13.0066 17.3589C12.9338 17.4319 12.8714 17.4944 12.8194 17.5777C12.757 17.6507 12.705 17.7236 12.653 17.807C12.6009 17.8903 12.5489 17.9841 12.4969 18.0779C12.4761 18.13 12.4345 18.1716 12.4137 18.2237C12.4033 18.255 12.3929 18.2967 12.3825 18.3279C12.3409 18.4217 12.3097 18.5259 12.2785 18.6197C12.2473 18.7135 12.2265 18.7968 12.2057 18.8906C12.1849 18.9844 12.1745 19.0781 12.1641 19.1823C12.1537 19.2761 12.1433 19.3699 12.1433 19.4637C12.1433 19.5574 12.1537 19.6512 12.1641 19.745C12.1745 19.8388 12.1849 19.9325 12.2057 20.0263C12.2265 20.1201 12.2473 20.2034 12.2785 20.2972C12.3097 20.391 12.3409 20.4952 12.3825 20.589C12.3929 20.6202 12.4033 20.6619 12.4137 20.6932C15.9296 28.3098 12.6322 33.5092 8.06573 40.6987C5.89173 44.1267 3.6345 47.6797 1.91818 51.8892C-3.81328 65.893 3.5825 81.1264 20.3192 89.785C20.7041 89.983 21.0889 90.1601 21.4738 90.3477C24.1575 98.7666 31.9382 106.904 49.3822 113.792C49.7359 113.927 50.0999 114 50.464 114C51.6394 114 52.7524 113.291 53.2101 112.135C53.803 110.614 53.0645 108.905 51.5458 108.301C39.3651 103.487 32.5207 98.3811 29.0776 92.963C31.106 93.3902 33.1448 93.6194 35.1835 93.6194C42.3401 93.6194 49.5174 90.9729 56.6636 85.7006C58.9832 87.524 61.9061 88.6285 65.0891 88.6285C68.4593 88.6285 71.5279 87.4094 73.91 85.388C81.1913 90.8686 88.5247 93.6194 95.8164 93.6194C97.8552 93.6194 99.894 93.3902 101.922 92.963C98.4793 98.3811 91.6348 103.487 79.4542 108.301C77.9355 108.894 77.197 110.614 77.7899 112.135C78.2476 113.291 79.3606 114 80.536 114C80.9 114 81.2641 113.937 81.6178 113.792C99.0618 106.904 106.832 98.7666 109.526 90.3477C109.911 90.1601 110.296 89.983 110.681 89.785C127.418 81.1264 134.813 65.893 129.082 51.8892C127.282 47.6693 125.035 44.1267 122.861 40.6987ZM20.236 83.0019C8.28415 75.6978 3.10399 64.3926 7.29597 54.1294C8.82505 50.3992 10.9263 47.0754 12.965 43.8662C16.5745 38.1771 20.2568 32.3422 19.6223 25.1944C35.6412 34.9679 31.21 46.5023 25.7282 60.7458C23.0653 67.6956 20.1216 75.354 20.236 83.0019ZM65.0163 82.7206C60.7203 82.7206 57.2357 79.2301 57.2357 74.9268C57.2357 70.6235 60.7203 67.133 65.0163 67.133C69.3123 67.133 72.7969 70.6235 72.7969 74.9268C72.7969 79.2301 69.3123 82.7206 65.0163 82.7206ZM70.5709 62.4234C68.8754 61.6627 66.9927 61.2355 65.0163 61.2355C63.2896 61.2355 61.6461 61.569 60.1274 62.1524C44.5973 34.9783 59.6177 13.8684 65.422 7.26241C71.2471 13.8892 86.3611 35.1138 70.5709 62.4234ZM110.618 83.0019C110.733 75.354 107.789 67.706 105.116 60.7458C99.6339 46.5023 95.2027 34.9575 111.222 25.1944C110.587 32.3422 114.269 38.1771 117.879 43.8662C119.918 47.0754 122.029 50.3992 123.548 54.1294C127.75 64.3926 122.57 75.6978 110.618 83.0019Z" fill="white" fill-opacity="0.6"/>
</svg>
