<svg width="127" height="95" viewBox="0 0 127 95" fill="none" xmlns="http://www.w3.org/2000/svg">
<path d="M38.2308 20.2607C38.1386 20.065 38.0695 19.6317 38.0695 20.0815C38.0695 26.6945 38.6457 33.3354 38.9834 39.9361C39.383 47.7484 39.7797 55.5898 39.9869 63.4103C40.0588 66.1258 40.166 68.8404 40.166 71.5457" stroke="black" stroke-width="3" stroke-linecap="round"/>
<path d="M38.2308 20.2607C39.2109 19.5957 40.2989 18.9438 41.0531 18.0387C41.432 17.584 41.1337 19.2208 41.1337 19.8127C41.1337 23.8917 41.4986 27.9612 41.743 32.0337C41.9959 36.2494 42.7146 40.4177 42.9435 44.6309C43.1826 49.0296 43.314 53.4425 43.5886 57.8374C43.7099 59.7777 43.9835 61.7188 44.0277 63.6612C44.0677 65.4246 43.9843 67.1742 44.1621 68.9295C44.3175 70.4642 44.4919 72.1018 44.5204 73.6422C44.5349 74.4246 44.9181 76.0552 43.7141 75.2191C42.3872 74.2977 41.6161 72.9958 40.4886 71.8682" stroke="black" stroke-width="3" stroke-linecap="round"/>
<path d="M40.9725 17.0355C34.8529 17.0355 28.7491 16.2641 22.6231 16.2291C18.3452 16.2046 14.0426 15.8013 9.78397 15.4227C8.3207 15.2927 6.9151 14.8897 5.42062 14.7866C5.05812 14.7616 4.70878 14.6379 4.36339 14.6164C4.30582 14.6128 5.2292 14.5077 5.4923 14.4551" stroke="black" stroke-width="3" stroke-linecap="round"/>
<path d="M38.0695 19.9384C33.3677 19.9384 28.6373 19.1679 23.9312 19.132C21.387 19.1126 18.8069 19.2921 16.2707 19.123C15.1375 19.0475 14.0156 18.8235 12.875 18.8094C10.3614 18.7784 7.84506 18.8094 5.33102 18.8094" stroke="black" stroke-width="3" stroke-linecap="round"/>
<path d="M3.71832 14.4551C3.71832 19.7644 3.71832 25.0874 3.71832 30.4032C3.71832 34.581 4.17436 38.7257 4.20214 42.893C4.25056 50.1556 4.20214 57.42 4.20214 64.6828C4.20214 66.1515 4.52469 67.6403 4.52469 69.1178C4.52469 70.589 4.44467 72.0847 4.53365 73.5528C4.62672 75.0885 4.68596 76.5978 4.68596 78.1402C4.68596 78.63 4.68596 79.1198 4.68596 79.6096C4.68596 80.7323 4.68596 80.3504 4.68596 79.4483" stroke="black" stroke-width="3" stroke-linecap="round"/>
<path d="M44.6818 75.5776C42.9846 75.5776 41.2913 75.8741 39.6106 76.0704C36.1201 76.4781 32.7438 76.7901 29.2353 76.6707C26.1612 76.5661 23.1145 76.4534 20.0517 76.7782C18.2192 76.9726 16.4083 77.3146 14.5774 77.504C11.9906 77.7716 9.3853 77.7806 6.79145 77.9967C6.05059 78.0585 5.25091 78.1937 4.52467 78.3551C3.73416 78.5308 3.75509 78.6042 4.36339 79.1257" stroke="black" stroke-width="3" stroke-linecap="round"/>
<path d="M38.0696 72.1908C38.083 72.0834 38.197 72.0295 38.0965 72.0295C34.786 72.0295 31.4429 72.3516 28.1423 72.5671C25.6994 72.7266 23.3125 73.1128 20.885 73.3556C17.8711 73.657 14.8731 73.8989 11.8626 74.2874C10.3644 74.4807 8.70942 74.1972 7.24843 74.5293C6.80202 74.6307 4.47566 74.3751 4.84725 74.9325" stroke="black" stroke-width="3" stroke-linecap="round"/>
<path d="M46.4558 17.6804C50.5644 18.1369 54.6413 18.6481 58.8022 18.6481C60.5516 18.6481 62.2792 18.9517 64.0346 18.9706C65.499 18.9864 66.9955 19.0727 68.4606 19.1408C70.7792 19.2487 73.0863 19.2932 75.4133 19.2932C75.893 19.2932 78.099 19.5485 78.3879 18.9706" stroke="black" stroke-width="3" stroke-linecap="round"/>
<path d="M47.1008 18.0029C46.0324 18.1365 48.3906 28.1993 48.5523 30.0178C48.7613 32.3699 49.1114 34.711 49.3586 37.0601C49.7971 41.2254 50.527 45.3469 50.9355 49.5229C51.4069 54.3411 52.1003 59.2773 52.1003 64.1182C52.1003 65.4361 52.2124 66.7963 52.2616 68.1231C52.293 68.973 52.3498 70.1688 52.5483 71.0619C52.8194 72.2819 52.7454 73.5841 52.7454 74.8608C52.7454 75.601 55.1072 75.0719 55.6841 75.1296C58.1771 75.3789 60.5841 75.5169 63.0848 75.2192C65.5975 74.92 68.0327 74.2711 70.5213 73.8752C73.1922 73.4503 75.7864 72.8696 78.3789 72.1191C80.0398 71.6383 81.7113 71.3603 83.3694 70.8648C84.1307 70.6373 84.8945 70.5261 85.6541 70.3362C85.9436 70.2638 87.365 70.121 86.6128 69.933" stroke="black" stroke-width="3" stroke-linecap="round"/>
<path d="M78.2266 18.9707C78.2266 19.2119 78.2252 19.4479 78.2625 19.6875C78.9923 24.374 79.7867 29.0582 80.3232 33.772C80.6586 36.719 80.8841 39.7519 81.6044 42.6331C82.2655 45.2775 82.6961 47.9786 83.3157 50.6341C83.8338 52.8545 84.4715 55.0332 84.9195 57.2731C85.2536 58.9435 85.553 60.6199 85.8871 62.2905C86.1478 63.5937 86.2351 64.996 86.7741 66.2238C87.143 67.0639 87.2579 68.2716 87.2579 69.1895C87.2579 69.4945 87.4192 70.4114 87.4192 69.6106" stroke="black" stroke-width="3" stroke-linecap="round"/>
<path d="M77.904 19.2932C77.6732 19.3221 77.7653 19.532 77.7338 19.7054C77.6794 20.0043 77.1968 20.4115 77.0439 20.5655C76.2312 21.384 75.3686 22.1512 74.5531 22.9667C74.2698 23.25 73.8722 24.3956 73.8722 23.6476" stroke="black" stroke-width="3" stroke-linecap="round"/>
<path d="M86.4515 69.6105C86.4219 69.3734 84.103 68.7528 83.8622 68.6697C83.4227 68.5182 82.8742 68.3603 82.5003 68.0695C81.8485 67.5625 81.1389 67.1914 80.3231 67.1914" stroke="black" stroke-width="3" stroke-linecap="round"/>
<path d="M53.068 71.3846C53.1447 71.6916 54.0106 71.5376 54.1969 71.5279C56.1932 71.4242 58.1265 71.2574 60.0744 70.9187C61.5304 70.6654 63.0261 70.5504 64.4825 70.2915C65.7016 70.0748 67.0882 70.2556 68.3262 70.2556C69.9156 70.2556 71.3507 70.1232 72.8867 69.6912C74.7708 69.1613 76.5911 68.4112 78.4685 67.9172C79.0083 67.7751 79.4781 67.6244 79.8752 67.2273C80.109 66.9935 80.9488 66.8689 80.1619 66.8689" stroke="black" stroke-width="3" stroke-linecap="round"/>
<path d="M74.8398 23.6475C74.8398 24.7268 74.9821 25.8002 75.0907 26.8729C75.4904 30.8211 75.7892 34.8086 76.3809 38.7355C76.7388 41.1107 76.9715 43.5057 77.4202 45.8674C77.8086 47.9115 78.2255 49.9495 78.4595 52.0226C78.6454 53.6686 78.7272 55.4378 79.1942 57.0311C79.569 58.3097 79.6568 59.811 79.8393 61.1346C79.9731 62.1043 80.2946 63.1027 80.5203 64.0554C80.6448 64.5815 80.7009 65.1162 80.798 65.6502C80.8665 66.0268 81.0782 67.14 80.807 66.8687" stroke="black" stroke-width="3" stroke-linecap="round"/>
<path d="M74.1948 23.1638C71.8944 23.1638 69.5963 23.3251 67.2959 23.3251C65.389 23.3251 63.5329 22.7897 61.6513 22.5545C60.5348 22.415 59.4292 22.1842 58.3183 21.999C57.0622 21.7897 55.6006 21.9982 54.394 21.6765C52.8395 21.262 51.1539 21.3898 49.5558 21.3898C48.8196 21.3898 48.1701 21.2285 47.4234 21.2285" stroke="black" stroke-width="3" stroke-linecap="round"/>
<path d="M83.0648 19.4545C83.0862 19.2836 83.347 19.2056 83.3784 19.4097C84.0384 23.6998 84.9878 27.9566 85.8781 32.2131C86.8181 36.7067 87.7814 41.3008 89.0319 45.7242C89.764 48.3135 90.4734 51.0588 91.451 53.5728C92.2108 55.5266 92.6121 57.5077 93.225 59.5041C93.8401 61.5076 94.3783 63.3392 94.7123 65.4175C94.8133 66.0458 94.6835 67.1322 95.0349 67.6753C95.3808 68.2099 97.5178 66.8159 97.902 66.6718C98.3053 66.5206 100.938 66.0059 100.805 65.74" stroke="black" stroke-width="3" stroke-linecap="round"/>
<path d="M82.7423 18.9707C82.9315 19.5383 85.3974 19.7352 85.5914 19.7771C87.5254 20.1949 89.7776 21.0673 91.7736 21.0673" stroke="black" stroke-width="3" stroke-linecap="round"/>
<path d="M52.9067 82.6736C52.9067 84.9316 53.007 87.1903 53.068 89.4471" stroke="black" stroke-width="3" stroke-linecap="round"/>
<path d="M52.2616 82.5122C54.3075 82.5122 56.369 82.621 58.3811 82.118C60.5715 81.5704 62.9362 81.1636 65.1814 80.8995C70.6054 80.2614 75.7993 79.1047 81.031 77.5934C83.5417 76.8681 86.2261 75.968 88.5481 74.8069C88.6498 74.7561 88.9863 74.3928 89.1036 74.4933C89.5578 74.8826 89.5914 77.1389 89.6771 77.7099C89.9607 79.6005 90.2342 81.4087 90.8149 83.2379C90.9289 83.5968 91.8654 85.3693 91.4511 85.5764" stroke="black" stroke-width="3" stroke-linecap="round"/>
<path d="M96.6118 71.707C96.6118 72.4494 96.9353 73.3802 97.0598 74.0724C97.4309 76.1361 97.7472 78.2296 98.2245 80.2724C98.2868 80.539 98.3913 80.6919 98.5471 80.8996" stroke="black" stroke-width="3" stroke-linecap="round"/>
<path d="M96.6118 72.1907C98.3365 72.1907 100.091 71.1631 101.683 70.6138C102.073 70.4794 103.708 70.3158 103.708 69.6104" stroke="black" stroke-width="3" stroke-linecap="round"/>
<path d="M45.972 82.5124C45.972 79.9315 46.0718 87.6733 46.1332 90.2535" stroke="black" stroke-width="3" stroke-linecap="round"/>
<path d="M45.3268 81.8672C42.0132 81.8672 38.6557 82.5896 35.3458 82.8707C31.7493 83.176 28.2296 83.8923 24.648 84.2863C21.8437 84.5948 19.0867 85.1126 16.2618 85.2181C14.3584 85.2892 12.45 85.2539 10.5455 85.2539C9.27775 85.2539 7.99725 85.694 6.72874 85.8632C5.2421 86.0614 3.67515 86.041 2.21308 86.347C1.58272 86.4789 2.52648 86.8667 2.7865 86.8667C3.22302 86.8667 3.71553 86.9419 4.07668 86.7412C4.11314 86.721 4.20212 89.3153 4.20212 89.5546C4.20212 90.5401 4.20212 91.5257 4.20212 92.5112" stroke="black" stroke-width="3" stroke-linecap="round"/>
<path d="M53.713 69.6104C53.1862 69.6104 54.1091 69.2122 54.2685 69.0907C58.1748 66.1132 61.8199 62.7115 65.4681 59.4322C68.3666 56.8268 71.1191 54.121 73.8005 51.2969C77.8697 47.011 81.8016 42.6789 86.3978 38.9326C90.5695 35.5322 95.0081 32.486 99.0219 28.8888C102.303 25.9486 105.237 22.5946 108.6 19.7589C109.697 18.8338 110.88 18.0164 111.897 16.9994C111.963 16.9335 112.025 16.8701 111.879 16.8739C110.892 16.8999 110.039 17.4119 109.209 17.8953C105.333 20.1533 101.652 22.7794 97.8751 25.1974C92.3013 28.7657 86.5652 32.0483 80.9503 35.5458C77.659 37.596 74.4371 39.6995 71.0051 41.5129C68.65 42.7573 66.3146 44.0938 64.0793 45.5448C61.6714 47.1078 59.314 48.8675 56.9743 50.5443C56.5512 50.8475 55.4318 51.2969 55.3347 51.8792C55.0088 53.8345 55.3258 56.0906 55.3258 58.0614C55.3258 59.7044 55.3727 61.3558 55.3258 62.9981C55.3049 63.7292 54.2332 65.3698 55.272 63.4999C56.2233 61.7876 57.0792 59.9664 58.3093 58.4287C60.5417 55.6382 63.3334 53.2244 65.9877 50.8489C68.476 48.6219 70.8632 46.2768 73.4063 44.1112C74.0351 43.5758 76.1329 42.2489 75.476 42.7494C73.0399 44.6054 70.6101 46.5393 68.362 48.6179C66.862 50.005 65.3359 51.4279 64.0345 53.0082C63.057 54.1951 64.2105 53.1697 64.5721 52.8558C71.595 46.7596 78.4207 40.4212 85.9498 34.9455C87.313 33.9541 88.6059 32.8394 90.0533 31.9709C90.4976 31.7044 90.1585 31.7443 89.8383 31.8724" stroke="black" stroke-opacity="0.1" stroke-width="10" stroke-linecap="round"/>
<path d="M5.33106 57.1925C5.10202 57.1925 5.48334 57.1955 5.52818 57.1925C6.37352 57.1361 7.0737 56.4431 7.73225 56.0277C14.9928 51.4483 22.1447 46.6979 29.3966 42.1045C35.8237 38.0335 42.4644 34.3424 48.6957 29.9731C51.8899 27.7334 55.0788 25.4845 58.2915 23.2713C62.4439 20.4107 66.9089 17.901 71.265 15.3599C73.0076 14.3435 75.07 13.4538 76.6498 12.1972C79.2568 10.1234 82.3097 8.13474 85.3764 6.74973C85.9327 6.49851 86.4828 6.19559 87.025 5.90753C90.0389 4.30637 80.4997 7.95653 77.3755 9.33011C71.9002 11.7374 66.1397 13.4999 60.5672 15.6735C57.6058 16.8287 54.5965 17.9306 51.6882 19.2126C48.838 20.4689 46.1477 22.0158 43.2662 23.2175C39.4688 24.8013 35.7511 26.5177 31.8516 27.8407C28.8472 28.8601 25.7967 29.9656 22.8919 31.2364C19.1826 32.8592 15.3451 34.1825 11.791 36.1373C10.6609 36.7589 9.39248 37.0938 8.23399 37.6426C7.1788 38.1424 7.05094 38.1769 7.14091 39.4703C7.25393 41.0949 7.32571 42.7167 7.19467 44.3444C7.02785 46.4164 6.45998 48.38 6.45998 50.4728C6.45998 50.7708 6.38256 54.8988 6.54062 54.8988C6.65008 54.8988 6.84322 53.7317 6.87212 53.6265C7.16511 52.5611 7.69204 51.6588 8.23399 50.7057C9.98224 47.6312 12.568 45.806 15.4734 43.8785C22.2859 39.3588 28.7718 34.2589 36.2328 30.8153C37.7238 30.1272 35.6626 30.9652 35.3548 31.102C32.9933 32.1516 30.6736 33.3292 28.3932 34.5425C22.5464 37.6533 16.9298 41.2094 11.2086 44.5415C10.4352 44.9919 8.49041 45.5518 10.3485 44.4519C12.7298 43.0421 15.3017 41.9318 17.7133 40.5634C21.7972 38.2461 25.9448 36.0494 30.0059 33.6914C34.9599 30.8149 40.1131 28.2605 44.8968 25.0991C47.6506 23.2792 50.1197 21.0769 52.8888 19.2753C53.8411 18.6557 54.9387 18.2702 55.8365 17.5819C56.3108 17.2183 58.5288 16.1137 56.7773 16.5516" stroke="black" stroke-opacity="0.1" stroke-width="10" stroke-linecap="round"/>
<path d="M121.609 22.6799C121.408 22.1422 120.534 23.1492 120.122 23.5489C114.497 29.003 108.921 34.5582 103.582 40.2945C101.092 42.9706 98.5216 45.614 96.3609 48.5732C95.6011 49.6138 94.8087 50.6255 94.1121 51.7091C93.924 52.0016 93.2243 53.1645 93.3863 52.3542" stroke="black" stroke-opacity="0.1" stroke-width="10" stroke-linecap="round"/>
</svg>
