<svg width="80" height="75" viewBox="0 0 80 75" fill="none" xmlns="http://www.w3.org/2000/svg">
<path d="M12.2729 2C27.7234 2.64714 43.2464 2.19024 58.7124 2.19024C62.961 2.19024 67.2097 2.19024 71.4584 2.19024C73.4946 2.19024 75.5309 2.19024 77.5671 2.19024C78.9179 2.19024 77.293 2.19024 76.7639 2.19024" stroke="black" stroke-width="3" stroke-linecap="round"/>
<path d="M77.5249 3.52197V72.5787" stroke="black" stroke-width="3" stroke-linecap="round"/>
<path d="M64.3984 16.6484C64.1305 20.2988 64.2296 24.0366 64.2187 27.6823C64.1968 35.0381 64.2081 42.3941 64.2081 49.75C64.2081 52.2724 64.2081 54.7948 64.2081 57.3173C64.2081 61.1996 64.2081 65.0818 64.2081 68.9641C64.2081 69.9787 64.2081 70.9933 64.2081 72.0079C64.2081 72.4638 64.2081 74.8546 64.2081 73.3396" stroke="black" stroke-width="3" stroke-linecap="round"/>
<path d="M63.6375 17.2191C63.6197 17.2107 63.3358 17.0728 63.2993 17.0711C60.8005 16.9581 58.2967 17.0306 55.7954 17.0288C46.7133 17.0224 37.6311 17.0288 28.549 17.0288C27.6119 17.0288 26.6748 17.0288 25.7377 17.0288C23.0567 17.0288 20.3757 17.0288 17.6948 17.0288C16.1412 17.0288 14.5876 17.0288 13.0339 17.0288" stroke="black" stroke-width="3" stroke-linecap="round"/>
<path d="M2 21.2141C3.08041 21.0598 2.68309 21.0952 4.36742 21.0662C9.33323 20.9806 14.3033 21.0239 19.2695 21.0239C23.9127 21.0239 28.5559 21.0239 33.1992 21.0239C35.9823 21.0239 38.7654 21.0239 41.5485 21.0239C44.5219 21.0239 47.4953 21.0239 50.4686 21.0239C53.1461 21.0239 61.1784 21.0239 58.5009 21.0239" stroke="black" stroke-width="3" stroke-linecap="round"/>
<path d="M59.8326 21.2141V71.4372" stroke="black" stroke-width="3" stroke-linecap="round"/>
<path d="M57 51H67.0827" stroke="#BE1622" stroke-width="10" stroke-linecap="round"/>
</svg>
