<svg width="107" height="90" viewBox="0 0 107 90" fill="none" xmlns="http://www.w3.org/2000/svg">
<path d="M10.3217 9.43726V88.4932" stroke="black" stroke-width="3" stroke-linecap="round"/>
<path d="M96 9.43726V88.4932" stroke="black" stroke-width="3" stroke-linecap="round"/>
<path d="M10.8252 9.43726H95.9236" stroke="black" stroke-width="3" stroke-linecap="round"/>
<path d="M9.81812 88.4932H95.4201" stroke="black" stroke-width="3" stroke-linecap="round"/>
<path d="M53.6262 11.4514V86.479" stroke="black" stroke-width="3" stroke-linecap="round"/>
<path d="M2 2L2 88" stroke="black" stroke-width="3" stroke-linecap="round"/>
<path d="M105 2L105 88" stroke="black" stroke-width="3" stroke-linecap="round"/>
<path d="M2.26501 88.4932H9.31459" stroke="black" stroke-width="3" stroke-linecap="round"/>
<path d="M6.5 60C13.3985 53.6295 32.2048 36.1251 39.7456 30.5421C43.1986 28.8952 53.6938 47.9171 57 46C64.5143 41.643 92.7198 17.8374 100.5 14" stroke="black" stroke-opacity="0.1" stroke-width="10" stroke-linecap="round"/>
<path d="M6.5 80C13.3985 73.6295 32.2048 56.1251 39.7456 50.5421C43.1986 48.8952 53.6938 67.9171 57 66C64.5143 61.643 92.7198 37.8374 100.5 34" stroke="black" stroke-opacity="0.1" stroke-width="10" stroke-linecap="round"/>
<path d="M97 88.4932H104.05" stroke="black" stroke-width="3" stroke-linecap="round"/>
<path d="M2 2L104 1.99999" stroke="black" stroke-width="3" stroke-linecap="round"/>
<path d="M18.8818 52.7417H44.0589" stroke="black" stroke-width="5" stroke-linecap="round"/>
<path d="M62 52.7417H87.177" stroke="black" stroke-width="5" stroke-linecap="round"/>
</svg>
