<svg width="80" height="75" viewBox="0 0 80 75" fill="none" xmlns="http://www.w3.org/2000/svg">
<path d="M12.2729 2C27.7234 2.64714 43.2464 2.19024 58.7124 2.19024C62.961 2.19024 67.2097 2.19024 71.4584 2.19024C73.4946 2.19024 75.5309 2.19024 77.5671 2.19024C78.9179 2.19024 77.293 2.19024 76.7639 2.19024" stroke="black" stroke-width="3" stroke-linecap="round"/>
<path d="M77.5249 3.52197V72.5787" stroke="black" stroke-width="3" stroke-linecap="round"/>
<path d="M64.3984 16.6484C64.1305 20.2988 64.2296 24.0366 64.2187 27.6823C64.1968 35.0381 64.2081 42.3941 64.2081 49.75C64.2081 52.2724 64.2081 54.7948 64.2081 57.3173C64.2081 61.1996 64.2081 65.0818 64.2081 68.9641C64.2081 69.9787 64.2081 70.9933 64.2081 72.0079C64.2081 72.4638 64.2081 74.8546 64.2081 73.3396" stroke="black" stroke-width="3" stroke-linecap="round"/>
<path d="M63.6375 17.2191C63.6197 17.2107 63.3358 17.0728 63.2993 17.0711C60.8005 16.9581 58.2967 17.0306 55.7954 17.0288C46.7133 17.0224 37.6311 17.0288 28.549 17.0288C27.6119 17.0288 26.6748 17.0288 25.7377 17.0288C23.0567 17.0288 20.3757 17.0288 17.6948 17.0288C16.1412 17.0288 14.5876 17.0288 13.0339 17.0288" stroke="black" stroke-width="3" stroke-linecap="round"/>
<path d="M2 21.2141C3.08041 21.0598 2.68309 21.0952 4.36742 21.0662C9.33323 20.9806 14.3033 21.0239 19.2695 21.0239C23.9127 21.0239 28.5559 21.0239 33.1992 21.0239C35.9823 21.0239 38.7654 21.0239 41.5485 21.0239C44.5219 21.0239 47.4953 21.0239 50.4686 21.0239C53.1461 21.0239 61.1784 21.0239 58.5009 21.0239" stroke="black" stroke-width="3" stroke-linecap="round"/>
<path d="M59.8326 21.2141V71.4372" stroke="black" stroke-width="3" stroke-linecap="round"/>
<path d="M26.7311 14.7458H36.8137" stroke="#BE1622" stroke-width="3" stroke-linecap="round"/>
<path d="M25.7799 23.6873C27.802 24.2451 30.4144 23.8728 32.4805 23.8775C33.6713 23.8802 34.8621 23.8775 36.0528 23.8775" stroke="#BE1622" stroke-width="3" stroke-linecap="round"/>
<path d="M31.2968 14.3656C31.2968 15.0701 31.2968 12.9564 31.2968 12.2518C31.2968 11.0664 32.1592 11.5853 33.1252 11.7973C35.8305 12.3912 38.5522 12.9933 41.2209 13.6997C45.9562 14.9532 51.0414 14.2615 55.7425 15.3062C56.0637 15.3776 57.3498 15.4814 57.1376 15.5493C54.3762 16.4329 51.6176 17.2945 48.7988 17.9801C45.9158 18.6814 42.8324 18.6425 39.8998 19.1638C37.428 19.6032 34.8707 20.0486 32.3748 20.4109C31.8754 20.4834 31.0538 20.3581 30.6521 20.7597C30.293 21.1188 30.4358 23.0164 30.7261 23.3068" stroke="#BE1622" stroke-width="3" stroke-linecap="round"/>
</svg>
