<svg width="135" height="79" viewBox="0 0 135 79" fill="none" xmlns="http://www.w3.org/2000/svg">
<path d="M38.6272 9.91878C37.5091 9.91878 37.262 12.2738 37.2297 13.145C37.2077 13.7395 37.2275 14.0761 37.5057 14.577C38.2227 15.8674 39.5213 16.6345 40.8355 17.1821C42.1529 17.731 43.8126 18.0827 45.2349 17.7169C47.3147 17.1821 47.7215 15.354 48.3317 13.6453C48.9079 12.0321 47.755 11.0085 47.1672 9.68587C46.6598 8.54415 44.3709 8.26988 43.3544 7.90023C42.0124 7.41223 40.367 7.93428 39.1706 8.59896C38.8306 8.78785 37.1951 10.1344 38.0061 10.5399" stroke="black" stroke-width="3" stroke-linecap="round"/>
<path d="M21.2366 19.8564C21.0522 19.8795 20.8525 20.5361 20.7708 20.6845C20.0841 21.9307 18.8329 23.3006 18.4417 24.6699C18.2416 25.3702 17.6714 25.9236 17.5187 26.6108C17.2537 27.8033 16.5784 28.6379 16.5784 29.8801C16.5784 31.3401 17.7384 32.2145 19.2094 31.5709C19.8662 31.2835 20.371 29.9321 20.7622 29.3453C21.0026 28.9847 21.1512 28.6249 21.3229 28.2325C21.6503 27.4841 22.3433 26.8316 22.4702 26.0069C22.8764 23.3665 26.607 24.204 28.5344 24.204C28.9228 24.204 30.0542 24.4167 30.3632 24.1695C30.8705 23.7637 30.5341 24.5554 30.4322 24.7906C30.1253 25.4989 29.7935 26.0997 29.5869 26.8437C29.1269 28.4994 28.3429 30.6138 27.4475 32.0885C26.6018 33.4814 25.896 34.9456 25.3513 36.4706C25.0587 37.2901 25.1256 38.1779 24.9718 39.024C24.7993 39.9725 24.8749 41.1659 24.8165 42.1295C24.645 44.9592 24.1868 47.7441 24.1868 50.6091C24.1868 51.623 24.2392 51.6874 23.2552 51.6874C21.8404 51.6874 20.4257 51.6874 19.011 51.6874C16.6381 51.6874 14.2204 51.5524 11.8512 51.696C10.0735 51.8038 8.66252 52.4498 7.72785 54.0855C7.39251 54.6723 7.0857 55.1593 6.94286 55.8021C6.9247 55.8838 6.64936 56.4651 6.74446 56.4922C7.23357 56.632 7.93655 56.5009 8.44383 56.5009C11.1659 56.5009 13.9957 56.0338 16.7251 56.4318C20.9005 57.0408 25.1911 57.4651 29.0003 55.4484C30.2813 54.7703 30.0245 51.8544 30.277 50.6867C30.6241 49.0814 30.6615 47.4356 30.9843 45.8215C31.1928 44.7793 31.4846 43.7517 31.4846 42.6815C31.4846 42.4468 31.3891 41.7239 31.6227 42.3537C32.0515 43.5102 32.3947 44.4213 33.1236 45.4075C34.1295 46.7684 34.4899 48.3394 35.2457 49.8241C36.0675 51.4385 36.9191 52.6965 37.385 54.4823C37.747 55.8699 38.5631 57.0942 38.9722 58.4331C39.3684 59.7295 40.1529 60.9358 40.6457 62.2115C40.9829 63.0842 41.4861 63.8764 41.8879 64.7303C42.1337 65.2526 42.9102 67.5252 43.4407 67.5252C45.5678 67.5252 47.766 67.7008 49.8845 67.5166C50.1484 67.4937 52.0592 66.9983 51.8944 66.9041C51.0155 66.4019 50.4671 65.3833 50.2727 64.4112C49.8101 62.0985 48.7959 59.6372 47.6934 57.5619C45.8457 54.0838 44.7997 50.1452 42.6729 46.8222C42.2372 46.1414 42.1172 45.3124 41.8103 44.5621C41.4084 43.5796 40.8924 42.552 40.2662 41.6981C39.7963 41.0574 38.6864 40.2102 38.4805 39.4898C38.1469 38.3221 39.1461 37.6575 39.6969 36.6173C40.4977 35.1046 41.0997 33.4805 41.9052 31.9591C42.3849 31.053 42.843 30.1085 43.363 29.2418C43.4216 29.1441 43.5454 28.6837 43.6304 28.9313C43.7924 29.4023 44.0561 29.8241 44.2947 30.2597C44.7053 31.0096 45.1234 31.7421 45.5282 32.4939C45.9398 33.2583 46.4589 33.7126 46.9343 34.4521C47.2024 34.8691 47.6398 35.2284 48.1247 35.2284C49.206 35.2284 50.1948 34.7626 51.2906 34.7626C52.4235 34.7626 53.5564 34.7626 54.6893 34.7626C55.3325 34.7626 55.9173 35.0732 56.4836 35.0732C56.6604 35.0732 57.1533 34.9719 57.0702 35.2629C56.7812 36.2742 56.4836 37.1491 56.4836 38.2131C56.4836 42.1749 56.3283 46.1311 56.3283 50.1001C56.3283 51.029 56.5126 51.8909 56.6044 52.8088C56.7307 54.0721 56.6389 55.3871 56.6389 56.6561C56.6389 58.8817 56.6389 61.1073 56.6389 63.3329C56.6389 65.3251 56.6389 67.3677 56.6389 69.3109C56.6389 69.848 55.0728 70.6111 54.6893 71.1224C53.8664 72.2197 52.8264 73.153 52.0583 74.2624C51.0499 75.719 50.1493 77.8146 48.0298 77.2212C47.4656 77.0632 46.9697 76.5985 46.3822 76.5397C45.6915 76.4706 44.9717 76.5311 44.2774 76.5311C43.8691 76.5311 43.4608 76.5311 43.0525 76.5311C42.8611 76.5311 41.9751 76.8254 42.5867 76.6001C43.3229 76.3288 44.057 75.3389 44.5276 74.7541C45.3298 73.757 46.0116 72.7261 46.9774 71.8729C47.6549 71.2745 48.2442 70.5975 48.9615 70.0441C49.1541 69.8956 50.025 69.2992 50.0484 69.1125C50.0725 68.9196 49.7067 69.298 49.5394 69.3971C49.1047 69.6548 48.5991 69.8842 48.0989 69.9751C47.3591 70.1096 46.4408 70.0585 45.7007 69.9751C44.517 69.8417 43.2304 69.7312 42.0432 69.6991C41.7723 69.6917 41.2069 69.4748 41.0771 69.6991C40.7133 70.3274 40.3042 70.9379 39.7486 71.4071C38.7517 72.2489 37.1157 73.3824 36.4879 74.5125C36.1694 75.0858 35.3053 76.5311 34.5556 76.5311C32.9263 76.5311 31.3186 76.2612 29.6731 76.2205C28.1458 76.1828 26.7369 75.6125 25.1874 75.5994C24.049 75.5899 22.9099 75.5994 21.7714 75.5994C19.8219 75.5994 17.8724 75.5994 15.9228 75.5994C13.9675 75.5994 12.0122 75.5994 10.0569 75.5994C8.65184 75.5994 7.35564 75.9326 5.98534 76.0653C5.53773 76.1086 5.0323 76.3144 4.62239 76.4966C4.09684 76.7302 5.2816 75.2123 5.3815 75.0646C6.73312 73.0657 8.42226 71.4371 9.86717 69.5438C10.5811 68.6083 11.2529 68.6283 11.0231 67.3355C10.896 66.6208 11.0826 65.8758 10.9541 65.1616C10.7907 64.2537 10.6488 63.3387 10.4883 62.4357C10.3143 61.4575 10.0407 60.2003 10.2208 59.2095C10.3532 58.4816 10.1629 58.7041 9.40135 58.666C8.58837 58.6254 7.81072 58.4495 7.01187 58.3555C6.44859 58.2892 2 58.0742 2 57.8897C2 57.5563 2.23231 57.1295 2.29329 56.7941C2.44111 55.9811 2.49979 55.0112 2.77637 54.2408C3.34916 52.6451 4.47792 51.0056 5.88183 50.0484C6.93543 49.33 7.75029 48.7231 9.03905 48.5043C10.1185 48.321 11.2096 48.1161 12.3084 48.1161C12.5123 48.1161 12.9899 48.2218 12.9899 47.9263C12.9899 47.0893 12.6172 46.231 12.5499 45.3902C12.3662 43.0934 12.029 40.7916 11.9289 38.4892C11.8051 35.6427 12.1645 32.7392 11.834 29.906C11.4643 26.7373 11.5351 23.5081 11.2991 20.3222C11.1294 18.0314 11.1439 15.7529 11.1439 13.4557C11.1439 11.2416 11.1439 9.02754 11.1439 6.81347C11.1439 5.83582 11.1439 4.85817 11.1439 3.88053C11.1439 3.66477 11.0439 3.06778 11.1611 2.86263C11.3221 2.58089 14.2229 2.98323 14.5771 3.00928C16.1772 3.12692 17.7871 2.99841 19.382 3.16455C22.3109 3.46965 25.6947 3.71756 28.638 3.31982C31.8312 2.8883 35.0732 2.18164 38.3166 2.15527C40.9535 2.13384 43.5876 2 46.2183 2C48.4513 2 50.6843 2.04387 52.9123 2.15527C53.7068 2.195 54.4372 2.62109 55.2414 2.62109C55.6024 2.62109 55.9681 2.60213 56.3283 2.62109C56.644 2.63771 56.6389 16.6923 56.6389 18.4935C56.6389 22.4673 56.6389 26.4411 56.6389 30.415C56.6389 30.985 53.3392 31.2093 52.6708 31.3121C52.2138 31.3824 50.6943 31.5792 50.3072 31.1568C50.1222 30.955 50.0479 30.4023 49.9449 30.1562C49.6386 29.4245 49.3061 28.7099 49.0305 27.9651C48.6243 26.8672 48.2956 25.7461 47.7193 24.7216C46.8686 23.2093 46.3309 21.5107 44.6483 20.7535C42.6444 19.8517 40.6832 19.8734 38.5237 19.6666C36.2809 19.4519 34.0222 19.2353 31.7607 19.2353C29.0432 19.2353 26.3888 19.4202 23.6865 19.5459C23.1977 19.5686 22.7545 19.7011 22.2545 19.7011C21.5249 19.7011 21.0813 19.4941 21.0813 20.3222" stroke="black" stroke-width="3" stroke-linecap="round"/>
<path d="M66.1105 33.21C65.7195 36.6316 65.9552 40.1727 65.9552 43.6133" stroke="black" stroke-width="3" stroke-linecap="round"/>
<path d="M65.9553 44.3894H112.071" stroke="black" stroke-width="3" stroke-linecap="round"/>
<path d="M65.9553 32.8994H111.606" stroke="black" stroke-width="3" stroke-linecap="round"/>
<path d="M90.6437 15.1983C90.6917 15.0701 90.7712 15.0603 90.9111 15.0603C91.4948 15.0603 91.5435 15.3081 92.205 15.8367C94.4262 17.6116 97.252 20.1241 99.2268 21.9096C102.789 25.1303 106.257 28.4228 109.587 31.8816C109.857 32.1624 110.519 32.9788 110.519 32.5889" stroke="black" stroke-width="3" stroke-linecap="round"/>
<path d="M90.6437 14.5771C90.6933 14.4978 90.6928 14.4684 90.8162 14.4564C92.2665 14.3151 93.7258 14.2894 95.1811 14.2148C100.034 13.9661 104.888 13.7289 109.742 13.4902" stroke="black" stroke-width="3" stroke-linecap="round"/>
<path d="M108.5 14.1113C110.267 15.7244 111.866 17.5076 113.486 19.2698C118.572 24.8033 123.466 30.478 128.375 36.1601" stroke="black" stroke-width="3" stroke-linecap="round"/>
<path d="M111.761 45.166C111.761 45.4272 111.685 45.4616 111.511 45.6491C105.564 52.0529 99.3413 58.129 93.1281 64.2646" stroke="black" stroke-width="3" stroke-linecap="round"/>
<path d="M93.5939 63.9541C93.6541 64.4359 94.5576 64.1054 95.0431 64.1007C100.645 64.0474 106.34 64.3026 111.916 63.9541" stroke="black" stroke-width="3" stroke-linecap="round"/>
<path d="M132.567 38.7996C132.813 38.5814 133.147 38.6115 132.93 39.0239C132.832 39.2095 132.586 39.5389 132.464 39.6795C131.469 40.8282 127.462 45.2466 127.426 45.2866C122.086 51.1818 116.693 57.0261 111.295 62.867" stroke="black" stroke-width="3" stroke-linecap="round"/>
</svg>
