<svg width="24" height="24" viewBox="0 0 24 24" fill="none" xmlns="http://www.w3.org/2000/svg">
<g clip-path="url(#clip0_621_2)">
<path fill-rule="evenodd" clip-rule="evenodd" d="M23.9995 12C23.9998 11.9723 24 11.9445 24 11.9167C24 2.58334 21.1648 0 12.0759 0C12.0505 0 12.0252 0.000148049 12 0.000443319C11.9748 0.000148049 11.9495 0 11.9241 0C2.83511 0 0 2.58334 0 11.9167C0 11.9445 0.000171144 11.9723 0.000512411 12C0.000171144 12.0277 0 12.0555 0 12.0833C0 21.4166 2.83511 24 11.9241 24C11.9495 24 11.9748 23.9998 12 23.9995C12.0252 23.9998 12.0505 24 12.0759 24C21.1648 24 24 21.4166 24 12.0833C24 12.0555 23.9998 12.0277 23.9995 12Z" fill="#FF8800"/>
<path d="M12.0229 12.2366C14.0248 12.2366 15.6568 10.6046 15.6568 8.60268C15.6568 6.60075 14.0248 4.96875 12.0229 4.96875C9.99919 4.96875 8.36719 6.60075 8.36719 8.60268C8.36719 10.6046 9.99919 12.2366 12.0229 12.2366ZM12.0229 7.10123C12.8498 7.10123 13.5243 7.7758 13.5243 8.60268C13.5243 9.42957 12.8498 10.1041 12.0229 10.1041C11.196 10.1041 10.5214 9.42957 10.5214 8.60268C10.4997 7.7758 11.1742 7.10123 12.0229 7.10123Z" fill="white"/>
<path d="M13.4812 15.2179C14.221 15.0438 14.9391 14.7609 15.5918 14.3475C16.0924 14.0428 16.2447 13.3683 15.9183 12.8678C15.6137 12.3673 14.9391 12.215 14.4386 12.5414C12.9589 13.4771 11.0223 13.4771 9.54261 12.5414C9.04213 12.2367 8.38933 12.3673 8.06293 12.8678C7.78004 13.3683 7.93236 14.0211 8.43284 14.3257C9.08564 14.7392 9.80373 15.022 10.5436 15.1962L8.51988 17.2199C8.10644 17.6333 8.10644 18.3079 8.51988 18.7213C8.73749 18.9388 8.99861 19.0259 9.28149 19.0259C9.56437 19.0259 9.82549 18.9171 10.0431 18.7213L12.045 16.7193L14.047 18.7213C14.4604 19.1347 15.1349 19.1347 15.5484 18.7213C15.9618 18.3079 15.9618 17.6333 15.5484 17.2199L13.4812 15.2179Z" fill="white"/>
<path d="M4.02231e-06 11.52C4.02231e-06 6.0888 4.03062e-06 3.3744 1.68 1.68C3.36 -0.0143959 6.0816 4.02231e-06 11.52 4.02231e-06H12.48C17.9112 4.02231e-06 20.6257 4.03062e-06 22.32 1.68C24.0143 3.36 24 6.0816 24 11.52V12.48C24 17.9112 24 20.6257 22.32 22.32C20.64 24.0143 17.9183 24 12.48 24H11.52C6.0888 24 3.3744 24 1.68 22.32C-0.0143959 20.64 4.02231e-06 17.9183 4.02231e-06 12.48V11.52Z" fill="#FF8800"/>
<path d="M12.0229 12.2366C14.0248 12.2366 15.6568 10.6046 15.6568 8.60268C15.6568 6.60075 14.0248 4.96875 12.0229 4.96875C9.9992 4.96875 8.36719 6.60075 8.36719 8.60268C8.36719 10.6046 9.9992 12.2366 12.0229 12.2366ZM12.0229 7.10123C12.8498 7.10123 13.5243 7.7758 13.5243 8.60268C13.5243 9.42957 12.8498 10.1041 12.0229 10.1041C11.196 10.1041 10.5214 9.42957 10.5214 8.60268C10.4997 7.7758 11.1742 7.10123 12.0229 7.10123Z" fill="white"/>
<path d="M13.4812 15.2179C14.221 15.0438 14.9391 14.7609 15.592 14.3475C16.0924 14.0428 16.2447 13.3683 15.9183 12.8678C15.6137 12.3673 14.9391 12.215 14.4386 12.5414C12.959 13.4771 11.0223 13.4771 9.54261 12.5414C9.04213 12.2367 8.38933 12.3673 8.06293 12.8678C7.78004 13.3683 7.93236 14.0211 8.43284 14.3257C9.08566 14.7392 9.80374 15.022 10.5436 15.1962L8.51989 17.2199C8.10644 17.6333 8.10644 18.3079 8.51989 18.7213C8.73749 18.9388 8.99861 19.0259 9.28149 19.0259C9.56437 19.0259 9.82549 18.9171 10.0431 18.7213L12.045 16.7193L14.047 18.7213C14.4604 19.1347 15.1349 19.1347 15.5484 18.7213C15.9618 18.3079 15.9618 17.6333 15.5484 17.2199L13.4812 15.2179Z" fill="white"/>
</g>
<defs>
<clipPath id="clip0_621_2">
<rect width="24" height="24" fill="white"/>
</clipPath>
</defs>
</svg>
