<svg width="24" height="24" viewBox="0 0 24 24" fill="none" xmlns="http://www.w3.org/2000/svg">
<rect width="24" height="24" rx="5.33333" fill="#7E57C2"/>
<path d="M11.9983 4.61133C10.972 4.61133 7.84882 4.61133 6.12215 6.18788C5.09393 7.21222 4.60938 8.69233 4.60938 10.8335V12.0002C4.60938 14.1414 5.09393 15.6216 6.13421 16.6575C6.65221 17.1301 7.35843 17.5077 8.22176 17.7686L8.49826 17.8518V19.9238C8.49826 20.1669 8.56865 20.1669 8.59199 20.1669C8.63982 20.1669 8.71643 20.1517 8.86188 20.0226C8.89688 19.988 9.15354 19.7103 10.4019 18.3119L10.5279 18.1707L10.7165 18.1828C11.1345 18.2088 11.5658 18.2224 11.9983 18.2224C13.0245 18.2224 16.1477 18.2224 17.8744 16.6455C18.9022 15.6212 19.3872 14.141 19.3872 12.0002V10.8335C19.3872 8.69233 18.9026 7.21222 17.8623 6.17622C16.1477 4.61133 13.0245 4.61133 11.9983 4.61133Z" fill="#7E57C2"/>
<path d="M15.675 13.8876C15.2429 13.5236 15.0434 13.4135 14.4469 13.0553C14.1984 12.9064 13.8196 12.7777 13.6209 12.7777C13.4851 12.7777 13.3226 12.8815 13.223 12.9811C12.9679 13.2362 12.8843 13.5554 12.4371 13.5554C11.9996 13.5554 11.2354 13.1102 10.6871 12.5346C10.1115 11.9863 9.66626 11.2221 9.66626 10.7846C9.66626 10.3374 9.9797 10.2479 10.2348 9.99245C10.3344 9.89328 10.444 9.73072 10.444 9.595C10.444 9.39628 10.3153 9.02334 10.1664 8.77484C9.8082 8.17789 9.69854 7.97839 9.33415 7.54672C9.21087 7.4005 9.07048 7.33361 8.92348 7.33322C8.67498 7.33284 8.3487 7.45611 8.12781 7.62061C7.7957 7.86834 7.44843 8.2055 7.35548 8.6255C7.34304 8.68267 7.33565 8.74022 7.33332 8.79778C7.31543 9.23528 7.48731 9.67939 7.67281 10.0554C8.10954 10.9417 8.68743 11.7996 9.31626 12.5657C9.51732 12.8107 9.73626 13.0386 9.96298 13.2587C10.1831 13.4851 10.411 13.704 10.656 13.9054C11.4221 14.5343 12.28 15.1122 13.1663 15.5489C13.5388 15.7324 13.9775 15.9012 14.4107 15.8888C14.4725 15.8868 14.5344 15.8798 14.5962 15.8662C15.0162 15.7737 15.3534 15.426 15.6011 15.0939C15.7656 14.873 15.8889 14.5471 15.8885 14.2982C15.8881 14.1512 15.8212 14.0108 15.675 13.8876ZM15.8885 11.9999C15.6738 11.9999 15.4996 11.8257 15.4996 11.611V11.2221C15.4996 9.29245 13.9293 7.72211 11.9996 7.72211C11.7849 7.72211 11.6107 7.54789 11.6107 7.33322C11.6107 7.11856 11.7849 6.94434 11.9996 6.94434C14.3582 6.94434 16.2774 8.8635 16.2774 11.2221V11.611C16.2774 11.8257 16.1031 11.9999 15.8885 11.9999ZM13.4999 11.2221C13.3273 11.2221 13.1694 11.1062 13.1239 10.9312C13.0173 10.5225 12.6984 10.2032 12.2913 10.0982C12.0832 10.0442 11.9584 9.83223 12.012 9.62417C12.0657 9.4165 12.2773 9.29167 12.4861 9.34495C13.1659 9.52111 13.6986 10.0535 13.8764 10.7348C13.9304 10.9429 13.806 11.1548 13.5983 11.2093C13.5653 11.2178 13.5322 11.2221 13.4999 11.2221Z" fill="white"/>
<path d="M14.7213 11.6112C14.5066 11.6112 14.3324 11.4369 14.3324 11.2223C14.3324 9.98249 13.3625 8.95971 12.1243 8.89438C11.9096 8.8831 11.7451 8.69994 11.7564 8.48566C11.7677 8.27099 11.954 8.1061 12.1651 8.11777C13.8167 8.20488 15.1102 9.56871 15.1102 11.2223C15.1102 11.4369 14.936 11.6112 14.7213 11.6112Z" fill="white"/>
<path d="M11.9987 4.22217C10.2487 4.22217 7.52179 4.38317 5.86045 5.90061C4.68601 7.07 4.2209 8.71033 4.2209 10.8333C4.2209 11.0091 4.22012 11.2051 4.22168 11.4166C4.22012 11.6278 4.2209 11.8238 4.2209 11.9996C4.2209 14.1225 4.68601 15.7628 5.86045 16.9322C6.49279 17.5097 7.28145 17.8897 8.10979 18.1401V19.9236C8.10979 20.5442 8.51773 20.5555 8.5924 20.5555H8.5959C8.78801 20.5547 8.95406 20.4606 9.12051 20.3128C9.18312 20.2572 9.90606 19.4514 10.6924 18.5702C11.1606 18.6002 11.6055 18.6111 11.9983 18.6111C13.7483 18.6111 16.4748 18.4497 18.1365 16.9322C19.3106 15.7632 19.7761 14.1225 19.7761 11.9996C19.7761 11.8238 19.7768 11.6278 19.7753 11.4162C19.7768 11.2047 19.7761 11.0091 19.7761 10.8329C19.7761 8.70995 19.311 7.06961 18.1365 5.90022C16.4752 4.38317 13.7487 4.22217 11.9987 4.22217ZM18.6098 11.8642V11.9996C18.6098 13.9074 18.2034 15.2075 17.3319 16.0876C15.8222 17.4444 12.9464 17.4444 11.9983 17.4444C11.7097 17.4444 11.2415 17.444 10.6889 17.4055C10.5353 17.5782 8.88756 19.4211 8.88756 19.4211V17.1411C8.06934 16.9447 7.26084 16.6227 6.66545 16.0879C5.79395 15.2075 5.38756 13.9074 5.38756 11.9996V11.8642C5.38756 11.7277 5.38718 11.5803 5.38834 11.4081C5.38718 11.2525 5.38718 11.1055 5.38756 10.9686V10.8333C5.38756 8.92539 5.79395 7.62533 6.66545 6.74528C8.17473 5.38845 11.051 5.38845 11.9987 5.38845C12.9464 5.38845 15.8222 5.38845 17.3315 6.74528C18.2034 7.62533 18.6094 8.92539 18.6094 10.8333V10.9686C18.6094 11.1051 18.6098 11.2525 18.6086 11.4248C18.6098 11.5807 18.6098 11.7277 18.6098 11.8642Z" fill="white"/>
</svg>
