<svg width="24" height="24" viewBox="0 0 24 24" fill="none" xmlns="http://www.w3.org/2000/svg">
<rect width="24" height="24" rx="5.33333" fill="#40C351"/>
<path fill-rule="evenodd" clip-rule="evenodd" d="M4.12109 19.7199L5.21609 15.7999C4.52665 14.6399 4.16165 13.3199 4.16165 11.9999C4.16165 7.7999 7.60887 4.3999 11.8672 4.3999C13.9355 4.3999 15.8416 5.1999 17.3016 6.6399C18.7616 8.0799 19.5728 9.9599 19.5728 11.9999C19.5728 16.1999 16.1255 19.5999 11.8672 19.5999C10.5694 19.5999 9.3122 19.2799 8.17665 18.6799L4.12109 19.7199Z" fill="white"/>
<path fill-rule="evenodd" clip-rule="evenodd" d="M17.2997 6.64015C15.8397 5.20015 13.9336 4.40015 11.8653 4.40015C7.60692 4.40015 4.1597 7.80015 4.1597 12.0001C4.1597 13.3201 4.5247 14.6401 5.21414 15.8001L4.11914 19.7201L8.1747 18.6801C9.31025 19.2801 10.5675 19.6001 11.8653 19.6001C16.1236 19.6001 19.5708 16.2001 19.5708 12.0001C19.5708 9.96015 18.7597 8.08015 17.2997 6.64015Z" fill="white"/>
<path fill-rule="evenodd" clip-rule="evenodd" d="M16.409 7.52018C15.1923 6.32018 13.6107 5.68018 11.8668 5.68018C8.33843 5.68018 5.45898 8.52018 5.45898 12.0002C5.45898 13.2002 5.78343 14.3602 6.43232 15.3602L6.59454 15.6002L5.94565 17.9202L8.37898 17.2802L8.62232 17.4002C9.59565 17.9602 10.7312 18.2802 11.8668 18.2802C15.3951 18.2802 18.2745 15.4402 18.2745 11.9602C18.2745 10.3202 17.6257 8.72018 16.409 7.52018Z" fill="#40C351"/>
<path fill-rule="evenodd" clip-rule="evenodd" d="M9.96137 8.79998C9.79915 8.47998 9.67748 8.47998 9.51526 8.47998C9.39359 8.47998 9.27193 8.47998 9.15026 8.47998C9.02859 8.47998 8.82582 8.51998 8.62304 8.71998C8.46082 8.91998 7.93359 9.35998 7.93359 10.32C7.93359 11.28 8.62304 12.16 8.70415 12.28C8.78526 12.4 10.0425 14.4 11.9891 15.16C13.6114 15.8 13.9358 15.68 14.3008 15.64C14.6658 15.6 15.4364 15.2 15.5986 14.72C15.7608 14.28 15.7608 13.88 15.7203 13.8C15.6797 13.72 15.558 13.68 15.3553 13.56C15.1525 13.44 14.2197 13 14.0575 12.96C13.8953 12.88 13.733 12.88 13.6114 13.04C13.4897 13.24 13.1247 13.64 13.003 13.8C12.8814 13.92 12.7597 13.96 12.5975 13.84C12.3947 13.76 11.7864 13.56 11.0564 12.88C10.4886 12.36 10.083 11.76 10.0019 11.56C9.88026 11.36 10.0019 11.28 10.083 11.16C10.1641 11.08 10.2858 10.92 10.3669 10.84C10.448 10.72 10.4886 10.64 10.5697 10.52C10.6508 10.4 10.6103 10.28 10.5697 10.2C10.4886 10.12 10.1236 9.19998 9.96137 8.79998Z" fill="white"/>
</svg>
