<svg width="266" height="47" viewBox="0 0 266 47" fill="none" xmlns="http://www.w3.org/2000/svg">
<path d="M49.585 16.5154C47.742 13.5937 46.4112 11.4838 47.8302 8.39722C47.8344 8.38454 47.8386 8.36762 47.8428 8.35494C47.8596 8.31688 47.8722 8.27883 47.8848 8.23655C47.8974 8.19849 47.9057 8.16468 47.9141 8.12662C47.9225 8.08857 47.9267 8.05051 47.9309 8.01245C47.9351 7.9744 47.9393 7.93635 47.9393 7.8983C47.9393 7.86024 47.9351 7.82219 47.9309 7.78414C47.9267 7.74609 47.9225 7.70803 47.9141 7.66575C47.9057 7.6277 47.8974 7.59387 47.8848 7.55581C47.8722 7.51353 47.8596 7.47548 47.8428 7.43742C47.8386 7.42474 47.8344 7.40782 47.8302 7.39514C47.8218 7.374 47.8092 7.35709 47.7966 7.33595C47.7756 7.2979 47.7588 7.26407 47.7336 7.22601C47.7126 7.19219 47.6874 7.16259 47.6665 7.13299C47.6413 7.10339 47.6161 7.0738 47.5909 7.0442C47.5615 7.0146 47.5321 6.98923 47.5027 6.96387C47.4733 6.9385 47.444 6.91735 47.4146 6.89621C47.381 6.87084 47.3432 6.8497 47.3054 6.83279C47.2844 6.82434 47.2676 6.80742 47.2508 6.79896C47.2383 6.79473 47.2215 6.7905 47.2089 6.78627C47.1711 6.76936 47.1291 6.75667 47.0913 6.74399C47.0535 6.73131 47.02 6.72286 46.9864 6.7144C46.9486 6.70595 46.9108 6.70171 46.873 6.69749C46.8352 6.69326 46.7975 6.68902 46.7597 6.68902C46.7219 6.68902 46.6841 6.69326 46.6463 6.69749C46.6085 6.70171 46.5666 6.70595 46.5288 6.7144C46.4952 6.72286 46.4616 6.73131 46.4238 6.73977C46.3818 6.75246 46.3399 6.76513 46.2979 6.78204C46.2853 6.78627 46.2727 6.7905 46.2601 6.79473C35.0219 11.9531 37.78 19.1538 40.2107 25.5046C41.4911 28.8491 42.6834 31.978 42.1964 34.9039C38.5525 36.2992 35.0261 35.5973 31.2479 32.7306C31.5753 32.0202 31.7642 31.2296 31.7642 30.3966C31.7642 29.0013 31.2478 27.7286 30.404 26.7519C33.1286 22.0924 34.8498 16.1348 32.713 9.41199C31.0883 4.30431 27.9482 1.03168 27.3269 0.422821C27.3143 0.410137 27.3059 0.393217 27.2933 0.376304C27.1589 0.228317 26.9952 0.131076 26.8189 0.0676529C26.8147 0.0676529 26.8105 0.0634206 26.8063 0.0634206C26.7433 0.0422795 26.6846 0.02536 26.6216 0.0169036C26.5964 0.0126753 26.5754 0.00845178 26.5502 0.00845178C26.5082 0.00422357 26.4621 0 26.4201 0C26.3739 0 26.3319 0.00422357 26.2899 0.00845178C26.2648 0.01268 26.2396 0.0126753 26.2186 0.0169036C26.1556 0.0295882 26.0926 0.0422795 26.0339 0.0634206C26.0297 0.0634206 26.0255 0.0676529 26.0213 0.0676529C25.8449 0.131076 25.6812 0.228317 25.5469 0.376304C25.5343 0.388989 25.5259 0.405908 25.5133 0.422821C24.892 1.03591 21.7518 4.30431 20.1272 9.41199C18.024 16.0291 19.657 21.9021 22.306 26.5278C21.3404 27.5299 20.7443 28.8914 20.7443 30.3966C20.7443 31.3014 20.9626 32.1555 21.3446 32.9124C17.6629 35.6227 14.2079 36.2654 10.6438 34.9039C10.1568 31.978 11.3491 28.8491 12.6295 25.5046C15.0601 19.1496 17.8141 11.9489 6.58006 6.79473C6.56746 6.7905 6.55487 6.78627 6.54228 6.78204C6.5003 6.76513 6.45832 6.75246 6.41634 6.73977C6.38276 6.73131 6.34917 6.71863 6.31139 6.7144C6.27361 6.70595 6.23163 6.70171 6.19384 6.69749C6.15606 6.69326 6.11827 6.68902 6.08049 6.68902C6.04271 6.68902 6.00493 6.69326 5.96714 6.69749C5.92936 6.70171 5.89158 6.70595 5.8538 6.7144C5.81602 6.72286 5.78243 6.73131 5.74885 6.74399C5.70687 6.75667 5.66908 6.76936 5.63129 6.78627C5.6187 6.7905 5.60192 6.79473 5.58932 6.79896C5.56833 6.80742 5.55154 6.82011 5.53475 6.83279C5.49696 6.85393 5.45918 6.87507 5.42559 6.89621C5.39621 6.91735 5.36682 6.9385 5.33744 6.96387C5.30805 6.98923 5.27867 7.0146 5.24928 7.0442C5.21989 7.0738 5.1947 7.09917 5.17371 7.13299C5.14852 7.16259 5.12753 7.19219 5.10653 7.22601C5.08554 7.25984 5.06456 7.2979 5.04357 7.33595C5.03517 7.35709 5.01838 7.374 5.00999 7.39514C5.00579 7.40782 5.00159 7.42474 4.99739 7.43742C4.9806 7.47548 4.96801 7.51776 4.95541 7.55581C4.94282 7.59387 4.93442 7.6277 4.92602 7.66575C4.91763 7.7038 4.91344 7.74186 4.90924 7.78414C4.90504 7.82219 4.90083 7.86024 4.90083 7.8983C4.90083 7.93635 4.90504 7.9744 4.90924 8.01245C4.91344 8.05051 4.91763 8.08857 4.92602 8.12662C4.93442 8.16468 4.94282 8.19849 4.95541 8.23655C4.96801 8.2746 4.9806 8.31688 4.99739 8.35494C5.00159 8.36762 5.00579 8.38454 5.00999 8.39722C6.42893 11.488 5.09815 13.5979 3.2552 16.5154C2.37781 17.9065 1.46683 19.3483 0.774149 21.0565C-1.53898 26.7392 1.44584 32.9208 8.20051 36.4345C8.35584 36.5148 8.51117 36.5867 8.66649 36.6628C9.74959 40.0792 12.8897 43.3814 19.9299 46.1763C20.0726 46.2313 20.2195 46.2609 20.3665 46.2609C20.8409 46.2609 21.2901 45.9733 21.4748 45.504C21.7141 44.8867 21.416 44.1933 20.8031 43.948C15.8872 41.9946 13.1248 39.9228 11.7353 37.7241C12.5539 37.8975 13.3767 37.9905 14.1995 37.9905C17.0878 37.9905 19.9845 36.9165 22.8685 34.777C23.8047 35.517 24.9843 35.9652 26.2689 35.9652C27.6291 35.9652 28.8675 35.4705 29.8289 34.6502C32.7675 36.8742 35.7272 37.9905 38.67 37.9905C39.4928 37.9905 40.3157 37.8975 41.1343 37.7241C39.7447 39.9228 36.9824 41.9946 32.0665 43.948C31.4535 44.189 31.1555 44.8867 31.3948 45.504C31.5795 45.9733 32.0287 46.2609 32.5031 46.2609C32.65 46.2609 32.7969 46.2355 32.9397 46.1763C39.9798 43.3814 43.1158 40.0792 44.2031 36.6628C44.3584 36.5867 44.5137 36.5148 44.669 36.4345C51.4237 32.9208 54.4085 26.7392 52.0954 21.0565C51.3691 19.3441 50.4624 17.9065 49.585 16.5154ZM8.16692 33.6819C3.34335 30.718 1.25272 26.1303 2.94454 21.9656C3.56165 20.4519 4.40967 19.1031 5.23248 17.8008C6.68921 15.4922 8.17532 13.1244 7.91924 10.2238C14.3842 14.1899 12.5959 18.8705 10.3835 24.6505C9.30879 27.4707 8.12074 30.5784 8.16692 33.6819ZM26.2396 33.5678C24.5058 33.5678 23.0994 32.1513 23.0994 30.4051C23.0994 28.6588 24.5058 27.2424 26.2396 27.2424C27.9734 27.2424 29.3797 28.6588 29.3797 30.4051C29.3797 32.1513 27.9734 33.5678 26.2396 33.5678ZM28.4813 25.3312C27.797 25.0226 27.0372 24.8492 26.2396 24.8492C25.5427 24.8492 24.8794 24.9845 24.2665 25.2213C17.9988 14.1941 24.0608 5.62775 26.4033 2.94706C28.7542 5.63621 34.854 14.2491 28.4813 25.3312ZM44.6439 33.6819C44.69 30.5784 43.502 27.4749 42.4231 24.6505C40.2107 18.8705 38.4223 14.1856 44.8873 10.2238C44.6313 13.1244 46.1174 15.4922 47.5741 17.8008C48.3969 19.1031 49.2491 20.4519 49.862 21.9656C51.5581 26.1303 49.4674 30.718 44.6439 33.6819Z" fill="#BE1622"/>
<path d="M236.602 15.0693H228.412C228.162 15.0693 227.963 15.2727 227.963 15.5185V35.8273C227.963 36.0773 228.166 36.2765 228.412 36.2765H231.2C231.45 36.2765 231.649 36.0731 231.649 35.8273V28.7809C231.649 28.5309 231.852 28.3317 232.098 28.3317H236.598C238.678 28.3317 240.361 27.6835 241.602 26.4081C242.839 25.1369 243.466 23.5522 243.466 21.7005C243.466 19.8489 242.844 18.2642 241.619 16.993C240.39 15.7176 238.7 15.0693 236.602 15.0693ZM238.767 24.014C238.136 24.62 237.331 24.9123 236.306 24.9123H232.107C231.857 24.9123 231.657 24.7089 231.657 24.4632V18.9464C231.657 18.6964 231.861 18.4972 232.107 18.4972H236.306C237.335 18.4972 238.14 18.7896 238.767 19.3955C239.39 19.993 239.691 20.7514 239.691 21.709C239.691 22.6581 239.39 23.4166 238.767 24.014Z" fill="#BE1622"/>
<path d="M223.734 15.0778L219.577 15.082L207.561 15.0693L207.395 15.0736C207.154 15.082 206.963 15.2812 206.963 15.5227V35.8273C206.963 36.0731 207.162 36.2765 207.412 36.2765L210.201 36.2934C210.451 36.2934 210.654 36.0943 210.654 35.8443V18.9591C210.654 18.7091 210.857 18.5099 211.103 18.5099L218.955 18.5015H220.044C220.294 18.5015 220.493 18.7048 220.493 18.9506V35.8528C220.493 36.1028 220.696 36.3061 220.946 36.3019L223.734 36.285C223.98 36.285 224.183 36.0816 224.183 35.8358V15.5269C224.188 15.2812 223.984 15.0778 223.734 15.0778Z" fill="#BE1622"/>
<path d="M255.293 14.9675C249.39 14.9675 244.585 19.7725 244.585 25.6749C244.585 31.5773 249.386 36.3823 255.293 36.3823C261.199 36.3823 266 31.5773 266 25.6749C266 19.7725 261.195 14.9675 255.293 14.9675ZM255.293 32.7807C251.377 32.7807 248.191 29.5943 248.191 25.6792C248.191 21.764 251.377 18.5734 255.293 18.5734C259.208 18.5734 262.394 21.7598 262.394 25.6792C262.394 29.5986 259.208 32.7807 255.293 32.7807Z" fill="#BE1622"/>
<path d="M103.618 15.0691H100.991C100.847 15.0691 100.711 15.1369 100.626 15.2555L90.813 28.679C90.5545 29.0306 89.9994 28.8484 89.9994 28.412V15.5182C89.9994 15.2682 89.796 15.0691 89.5503 15.0691H86.758C86.508 15.0691 86.3088 15.2725 86.3088 15.5182V35.8271C86.3088 36.0771 86.5122 36.2762 86.758 36.2762H89.5333C89.6774 36.2762 89.813 36.2085 89.8977 36.094L99.567 22.9757C99.8255 22.624 100.381 22.8062 100.381 23.2426V35.8229C100.381 36.0729 100.584 36.272 100.83 36.272H103.622C103.872 36.272 104.071 36.0686 104.071 35.8229V15.514C104.067 15.2725 103.868 15.0691 103.618 15.0691Z" fill="white"/>
<path d="M126.897 18.4927H132.325C132.575 18.4927 132.774 18.696 132.774 18.9418V35.8313C132.774 36.0813 132.977 36.2804 133.223 36.2804H136.015C136.265 36.2804 136.465 36.077 136.465 35.8313V18.9418C136.465 18.6918 136.668 18.4927 136.914 18.4927H142.371C142.621 18.4927 142.82 18.2893 142.82 18.0435V15.5224C142.82 15.2724 142.617 15.0732 142.371 15.0732H126.893C126.643 15.0732 126.444 15.2766 126.444 15.5224V18.0435C126.448 18.2893 126.647 18.4927 126.897 18.4927Z" fill="white"/>
<path d="M145.375 36.2805H158.786C159.036 36.2805 159.235 36.0771 159.235 35.8313V33.3102C159.235 33.0602 159.032 32.861 158.786 32.861H149.066C148.816 32.861 148.617 32.6577 148.617 32.4119V27.6154C148.617 27.3654 148.82 27.1663 149.066 27.1663H158.574C158.824 27.1663 159.023 26.9629 159.023 26.7171V24.196C159.023 23.946 158.82 23.7468 158.574 23.7468H149.066C148.816 23.7468 148.617 23.5435 148.617 23.2977V18.9503C148.617 18.7003 148.82 18.5012 149.066 18.5012H158.786C159.036 18.5012 159.235 18.2978 159.235 18.0521V15.5309C159.235 15.2809 159.032 15.0818 158.786 15.0818H145.375C145.125 15.0818 144.926 15.2852 144.926 15.5309V35.8398C144.926 36.0771 145.125 36.2805 145.375 36.2805Z" fill="white"/>
<path d="M182.332 15.0691H178.515C178.332 15.0691 178.167 15.1792 178.099 15.3487L172.794 28.1535C172.642 28.5264 172.116 28.5222 171.964 28.1535L166.684 15.353C166.617 15.1835 166.451 15.0733 166.269 15.0733H162.447C162.197 15.0733 161.998 15.2767 161.998 15.5225V35.8313C161.998 36.0813 162.201 36.2805 162.447 36.2805H165.24C165.49 36.2805 165.689 36.0771 165.689 35.8313V24.5265C165.689 24.035 166.367 23.8994 166.557 24.357L171.354 36.0051C171.422 36.1745 171.587 36.2847 171.769 36.2847H172.989C173.172 36.2847 173.337 36.1745 173.405 36.0051L178.231 24.3316C178.417 23.874 179.099 24.0096 179.099 24.5053V35.8313C179.099 36.0813 179.303 36.2805 179.549 36.2805H182.337C182.587 36.2805 182.786 36.0771 182.786 35.8313V15.5225C182.786 15.2725 182.582 15.0691 182.332 15.0691Z" fill="white"/>
<path d="M196.442 15.353C196.374 15.1835 196.209 15.0691 196.023 15.0691H192.73C192.548 15.0691 192.383 15.1793 192.311 15.353L184.15 35.6618C184.031 35.9584 184.247 36.2805 184.569 36.2805H187.743C187.93 36.2805 188.095 36.1661 188.163 35.9966L189.705 32.1238C189.773 31.9543 189.938 31.8399 190.124 31.8399H198.658C198.845 31.8399 199.01 31.9543 199.078 32.1238L200.62 35.9966C200.688 36.1661 200.853 36.2805 201.039 36.2805H204.213C204.531 36.2805 204.751 35.9584 204.633 35.6618L196.442 15.353ZM197.082 28.4205H191.679C191.362 28.4205 191.146 28.0985 191.26 27.8061L193.972 20.9545C194.12 20.5732 194.662 20.5732 194.811 20.9545L197.501 27.8061C197.616 28.0985 197.4 28.4205 197.082 28.4205Z" fill="white"/>
<path d="M127.855 26.1367C127.867 25.8825 127.655 25.6748 127.401 25.6748H124.702C124.469 25.6748 124.266 25.8528 124.253 26.0858C124.147 27.8697 123.346 29.5773 122.028 30.8273C120.588 32.1874 118.723 32.8738 116.766 32.7679C113.211 32.5687 110.27 29.6281 110.071 26.0731C109.961 24.1155 110.652 22.2469 112.012 20.8105C113.355 19.3868 115.236 18.5733 117.164 18.5733H117.245L117.287 14.9717H117.164C114.249 14.9717 111.418 16.2005 109.393 18.336C107.317 20.5351 106.279 23.4037 106.482 26.4036C106.796 31.073 110.211 35.0306 114.766 36.1068C115.588 36.3017 116.384 36.3865 117.173 36.3865C119.906 36.3865 122.486 35.3568 124.503 33.4501C126.524 31.5306 127.732 28.8866 127.855 26.1367Z" fill="white"/>
<path d="M83.3388 25.6749H80.6397C80.4025 25.6749 80.1991 25.8571 80.1864 26.0902C79.9703 29.8147 76.8729 32.7765 73.0933 32.7765C68.551 32.7765 64.9875 28.4884 66.246 23.747C67.0638 20.6538 69.9451 18.5522 73.1441 18.5691H73.1738L73.2162 14.9675H73.0933C66.7884 14.9675 61.7376 20.4505 62.4537 26.8995C63.0003 31.8104 66.9536 35.7679 71.8688 36.3145C78.161 37.0179 83.5295 32.2299 83.7922 26.1368C83.8007 25.8825 83.5888 25.6749 83.3388 25.6749Z" fill="white"/>
<path d="M112.465 44.3098H113.02V40.3395H115.635V44.3098H116.19V39.8438H112.465V44.3098Z" fill="white"/>
<path d="M119.028 39.8438H117.232V44.3098H117.787V42.5344H119.024C119.452 42.5344 119.791 42.403 120.045 42.1445C120.3 41.8861 120.422 41.5683 120.422 41.187C120.422 40.8056 120.3 40.4878 120.05 40.2293C119.804 39.9709 119.461 39.8438 119.028 39.8438ZM119.605 41.8013C119.439 41.9623 119.223 42.0386 118.961 42.0386H117.787V40.3395H118.961C119.223 40.3395 119.439 40.42 119.605 40.5768C119.77 40.7336 119.85 40.9412 119.85 41.1912C119.855 41.4369 119.77 41.6403 119.605 41.8013Z" fill="white"/>
<path d="M123.202 39.7676C122.545 39.7676 122.012 39.9879 121.601 40.4243C121.19 40.8608 120.986 41.4116 120.986 42.0769C120.986 42.7421 121.19 43.2929 121.601 43.7294C122.012 44.1658 122.545 44.3861 123.202 44.3861C123.855 44.3861 124.384 44.1658 124.8 43.7294C125.211 43.2929 125.418 42.7421 125.418 42.0769C125.418 41.4116 125.211 40.8608 124.8 40.4243C124.384 39.9879 123.855 39.7676 123.202 39.7676ZM124.389 43.3819C124.088 43.7251 123.689 43.8946 123.198 43.8946C122.702 43.8946 122.304 43.7251 122.007 43.3819C121.706 43.0387 121.558 42.6065 121.558 42.0811C121.558 41.5514 121.706 41.115 122.007 40.776C122.308 40.4371 122.702 40.2676 123.198 40.2676C123.689 40.2676 124.084 40.4371 124.389 40.776C124.694 41.115 124.842 41.5514 124.842 42.0811C124.842 42.6065 124.694 43.0387 124.389 43.3819Z" fill="white"/>
<path d="M125.982 40.3395H127.393V44.3098H127.952V40.3395H129.372V39.8438H125.982V40.3395Z" fill="white"/>
<path d="M130.664 43.331V39.8438H130.109V44.3098H130.643L133.249 40.7463V44.3098H133.804V39.8438H133.236L130.664 43.331Z" fill="white"/>
<path d="M137.308 42.0051C137.528 41.9585 137.71 41.8441 137.863 41.6619C138.015 41.4755 138.092 41.2509 138.092 40.984C138.092 40.645 137.977 40.3696 137.753 40.1619C137.528 39.9543 137.223 39.8484 136.837 39.8484H134.85V44.3144H136.888C137.291 44.3144 137.604 44.2042 137.837 43.9839C138.066 43.7636 138.181 43.4712 138.181 43.111C138.181 42.8441 138.096 42.6026 137.922 42.3865C137.748 42.1661 137.545 42.0433 137.308 42.0051ZM135.405 40.3399H136.744C136.986 40.3399 137.172 40.4077 137.312 40.5433C137.448 40.6789 137.515 40.8526 137.515 41.0645C137.515 41.2763 137.448 41.4458 137.316 41.5814C137.181 41.717 136.994 41.7805 136.748 41.7805H135.409V40.3399H135.405ZM137.38 43.6068C137.231 43.7466 137.028 43.8144 136.77 43.8144H135.405V42.2721H136.77C137.032 42.2721 137.236 42.3441 137.384 42.4924C137.528 42.6407 137.6 42.8229 137.6 43.0432C137.6 43.2805 137.528 43.467 137.38 43.6068Z" fill="white"/>
<path d="M141.096 39.7676C140.439 39.7676 139.905 39.9879 139.494 40.4243C139.083 40.8608 138.88 41.4116 138.88 42.0769C138.88 42.7421 139.083 43.2929 139.494 43.7294C139.905 44.1658 140.439 44.3861 141.096 44.3861C141.748 44.3861 142.278 44.1658 142.693 43.7294C143.104 43.2929 143.312 42.7421 143.312 42.0769C143.312 41.4116 143.104 40.8608 142.693 40.4243C142.282 39.9879 141.748 39.7676 141.096 39.7676ZM142.286 43.3819C141.986 43.7251 141.587 43.8946 141.096 43.8946C140.6 43.8946 140.202 43.7251 139.905 43.3819C139.604 43.0387 139.456 42.6065 139.456 42.0811C139.456 41.5514 139.604 41.115 139.905 40.776C140.206 40.4371 140.6 40.2676 141.096 40.2676C141.587 40.2676 141.981 40.4371 142.286 40.776C142.592 41.115 142.74 41.5514 142.74 42.0811C142.74 42.6065 142.587 43.0387 142.286 43.3819Z" fill="white"/>
<path d="M144.185 44.3098H144.74V40.3395H147.354V44.3098H147.909V39.8438H144.185V44.3098Z" fill="white"/>
<path d="M150.99 39.7676C150.333 39.7676 149.799 39.9879 149.388 40.4243C148.977 40.8608 148.774 41.4116 148.774 42.0769C148.774 42.7421 148.977 43.2929 149.388 43.7294C149.799 44.1658 150.333 44.3861 150.99 44.3861C151.642 44.3861 152.172 44.1658 152.587 43.7294C152.998 43.2929 153.206 42.7421 153.206 42.0769C153.206 41.4116 152.998 40.8608 152.587 40.4243C152.176 39.9879 151.642 39.7676 150.99 39.7676ZM152.181 43.3819C151.88 43.7251 151.481 43.8946 150.99 43.8946C150.494 43.8946 150.096 43.7251 149.799 43.3819C149.498 43.0387 149.35 42.6065 149.35 42.0811C149.35 41.5514 149.498 41.115 149.799 40.776C150.1 40.4371 150.494 40.2676 150.99 40.2676C151.481 40.2676 151.875 40.4371 152.181 40.776C152.486 41.115 152.634 41.5514 152.634 42.0811C152.63 42.6065 152.481 43.0387 152.181 43.3819Z" fill="white"/>
<path d="M159.375 39.8438H158.68L156.875 41.9454V39.8438H156.32V41.9454L154.528 39.8438H153.829L155.693 41.9666L153.668 44.3098H154.358L156.053 42.3013L156.32 42.6064V44.3098H156.875V42.6064L157.146 42.3013L158.841 44.3098H159.536L157.507 41.9666L159.375 39.8438Z" fill="white"/>
<path d="M161.498 39.8438L159.701 44.3098H160.337L160.731 43.3183H162.955L163.35 44.3098H163.985L162.184 39.8438H161.498ZM160.896 42.8225L161.845 40.42L162.79 42.8225H160.896Z" fill="white"/>
<path d="M166.367 39.8438H164.57V44.3098H165.125V42.5344H166.362C166.79 42.5344 167.134 42.403 167.384 42.1445C167.634 41.8861 167.761 41.5683 167.761 41.187C167.761 40.8056 167.638 40.4878 167.388 40.2293C167.142 39.9709 166.799 39.8438 166.367 39.8438ZM166.943 41.8013C166.778 41.9623 166.562 42.0386 166.299 42.0386H165.125V40.3395H166.299C166.562 40.3395 166.778 40.42 166.943 40.5768C167.108 40.7336 167.189 40.9412 167.189 41.1912C167.193 41.4369 167.108 41.6403 166.943 41.8013Z" fill="white"/>
<path d="M171.672 41.7632H169.061V39.8438H168.502V44.3098H169.061V42.259H171.672V44.3098H172.227V39.8438H171.672V41.7632Z" fill="white"/>
<path d="M177.506 39.8438H176.951V44.3098H177.506V39.8438Z" fill="white"/>
<path d="M175.065 41.6152H173.828V39.8398H173.273V44.3058H175.07C175.502 44.3058 175.845 44.1745 176.095 43.916C176.345 43.6575 176.468 43.3398 176.468 42.9584C176.468 42.5771 176.341 42.2593 176.091 42.0008C175.837 41.7466 175.498 41.6152 175.065 41.6152ZM175.642 43.577C175.476 43.7338 175.26 43.8143 174.998 43.8143H173.824V42.1152H174.998C175.26 42.1152 175.476 42.1957 175.642 42.3525C175.807 42.5093 175.887 42.7169 175.887 42.9669C175.892 43.2126 175.807 43.416 175.642 43.577Z" fill="white"/>
<path d="M178.548 44.3098H181.476V43.814H179.108V42.2717H181.43V41.7759H179.108V40.3395H181.476V39.8438H178.548V44.3098Z" fill="white"/>
<path d="M186.908 43.7168C186.688 43.8354 186.455 43.8948 186.205 43.8948C185.714 43.8948 185.303 43.7253 184.976 43.3821C184.65 43.0389 184.485 42.6067 184.485 42.0812C184.485 41.5558 184.65 41.1194 184.976 40.7804C185.303 40.4372 185.714 40.2677 186.205 40.2677C186.455 40.2677 186.688 40.327 186.908 40.4499C187.129 40.5686 187.302 40.7254 187.43 40.9203L187.9 40.6576C187.485 40.0686 186.921 39.772 186.205 39.772C185.553 39.772 185.006 39.9881 184.57 40.4202C184.133 40.8524 183.909 41.4075 183.909 42.0855C183.909 42.7634 184.129 43.3185 184.57 43.7507C185.01 44.1829 185.557 44.399 186.205 44.399C186.904 44.399 187.472 44.1024 187.908 43.5134L187.434 43.2507C187.302 43.4414 187.129 43.5982 186.908 43.7168Z" fill="white"/>
<path d="M189.171 43.331V39.8438H188.616V44.3098H189.154L191.756 40.7463V44.3098H192.315V39.8438H191.743L189.171 43.331Z" fill="white"/>
<path d="M196.179 43.7168C195.959 43.8354 195.726 43.8948 195.476 43.8948C194.984 43.8948 194.573 43.7253 194.247 43.3821C193.921 43.0389 193.756 42.6067 193.756 42.0812C193.756 41.5558 193.921 41.1194 194.247 40.7804C194.573 40.4372 194.984 40.2677 195.476 40.2677C195.726 40.2677 195.959 40.327 196.179 40.4499C196.4 40.5686 196.573 40.7254 196.701 40.9203L197.171 40.6576C196.756 40.0686 196.192 39.772 195.476 39.772C194.823 39.772 194.277 39.9881 193.84 40.4202C193.404 40.8524 193.179 41.4075 193.179 42.0855C193.179 42.7634 193.4 43.3185 193.84 43.7507C194.281 44.1829 194.828 44.399 195.476 44.399C196.175 44.399 196.743 44.1024 197.179 43.5134L196.705 43.2507C196.569 43.4414 196.395 43.5982 196.179 43.7168Z" fill="white"/>
<path d="M197.578 40.3395H198.989V44.3098H199.548V40.3395H200.967V39.8438H197.578V40.3395Z" fill="white"/>
<path d="M201.705 44.3098H204.628V43.814H202.26V42.2717H204.582V41.7759H202.26V40.3395H204.628V39.8438H201.705V44.3098Z" fill="white"/>
<path d="M207.696 43.2038L206.311 39.8438H205.514V44.3098H206.069V40.6319L207.582 44.3098H207.811L209.332 40.6319V44.3098H209.887V39.8438H209.09L207.696 43.2038Z" fill="white"/>
<path d="M215.166 39.8438H214.611V44.3098H215.166V39.8438Z" fill="white"/>
<path d="M212.726 41.6152H211.488V39.8398H210.933V44.3058H212.73C213.162 44.3058 213.505 44.1745 213.755 43.916C214.005 43.6575 214.128 43.3398 214.128 42.9584C214.128 42.5771 214.001 42.2593 213.751 42.0008C213.497 41.7466 213.158 41.6152 212.726 41.6152ZM213.302 43.577C213.137 43.7338 212.92 43.8143 212.658 43.8143H211.484V42.1152H212.658C212.92 42.1152 213.137 42.1957 213.302 42.3525C213.467 42.5093 213.548 42.7169 213.548 42.9669C213.552 43.2126 213.467 43.416 213.302 43.577Z" fill="white"/>
</svg>
